<svg xmlns="http://www.w3.org/2000/svg" width="174.403" height="100" viewBox="0 0 174.403 100">
  <g id="flying-car" transform="translate(-376.208 -207.579)">
    <g id="Group_549" data-name="Group 549" opacity="0.3">
      <rect id="Rectangle_580" data-name="Rectangle 580" width="109.537" height="37.621" rx="18.81" transform="translate(509.994 251.92) rotate(-180)" fill="#1fced1"/>
      <rect id="Rectangle_581" data-name="Rectangle 581" width="134.069" height="37.621" rx="18.81" transform="translate(376.208 237.796)" fill="#1fced1"/>
      <rect id="Rectangle_582" data-name="Rectangle 582" width="116.069" height="37.621" rx="18.81" transform="translate(403.704 263.064)" fill="#1fced1"/>
      <rect id="Rectangle_583" data-name="Rectangle 583" width="118.485" height="37.621" rx="18.81" transform="translate(432.127 241.109)" fill="#1fced1"/>
      <circle id="Ellipse_230" data-name="Ellipse 230" cx="14.425" cy="14.425" r="14.425" transform="translate(439.243 207.579)" fill="#1fced1"/>
      <circle id="Ellipse_231" data-name="Ellipse 231" cx="14.425" cy="14.425" r="14.425" transform="translate(461.738 278.73)" fill="#1fced1"/>
    </g>
    <path id="Path_656" data-name="Path 656" d="M504.122,250.816,501.6,249.48a26.774,26.774,0,0,0-11.245-3.077l-4.714-.225-42.1-1.3-8.125-.251a4.6,4.6,0,0,0-4.734,4.594v4.666a10.649,10.649,0,0,0,8.47,10.424h.226a7.482,7.482,0,0,0,13.523,0h31.048a7.482,7.482,0,0,0,13.523,0h.942c2.9,0,5.368.5,6.933-1.694,1.008-1.413,1.7-5.071,1.7-6.939A5.5,5.5,0,0,0,504.122,250.816Z" fill="#fff"/>
    <circle id="Ellipse_232" data-name="Ellipse 232" cx="7.524" cy="7.524" r="7.524" transform="translate(438.62 253.542)" fill="#fff"/>
    <circle id="Ellipse_233" data-name="Ellipse 233" cx="7.524" cy="7.524" r="7.524" transform="translate(483.191 253.542)" fill="#fff"/>
    <circle id="Ellipse_234" data-name="Ellipse 234" cx="7.524" cy="7.524" r="7.524" transform="translate(438.62 253.542)" fill="none" stroke="#000" stroke-miterlimit="10" stroke-width="2"/>
    <circle id="Ellipse_235" data-name="Ellipse 235" cx="3.478" cy="3.478" r="3.478" transform="translate(442.666 257.588)" fill="none" stroke="#000" stroke-miterlimit="10" stroke-width="2"/>
    <circle id="Ellipse_236" data-name="Ellipse 236" cx="3.478" cy="3.478" r="3.478" transform="translate(487.237 257.588)" fill="none" stroke="#000" stroke-miterlimit="10" stroke-width="2"/>
    <circle id="Ellipse_237" data-name="Ellipse 237" cx="7.524" cy="7.524" r="7.524" transform="translate(483.191 253.542)" fill="none" stroke="#000" stroke-miterlimit="10" stroke-width="2"/>
    <path id="Path_657" data-name="Path 657" d="M485.64,246.178s-6.2-13.063-15.92-13.052c-9.244-.116-19.643.053-26.477,12.242" fill="#fff" stroke="#000" stroke-miterlimit="10" stroke-width="2"/>
    <line id="Line_348" data-name="Line 348" x1="31.059" transform="translate(452.97 264.31)" fill="none" stroke="#000" stroke-miterlimit="10" stroke-width="2"/>
    <path id="Path_658" data-name="Path 658" d="M439.156,264.31h0a10.649,10.649,0,0,1-8.47-10.424V249.22a4.6,4.6,0,0,1,4.734-4.594l50.22,1.552,4.714.225A26.774,26.774,0,0,1,501.6,249.48l2.523,1.336a5.5,5.5,0,0,1,2.928,4.861h0c0,1.868-.691,5.526-1.7,6.939-1.565,2.193-4.033,1.694-6.933,1.694h-1.532" fill="none" stroke="#000" stroke-miterlimit="10" stroke-width="2"/>
    <line id="Line_349" data-name="Line 349" transform="translate(446.143 261.065)" fill="none" stroke="#000" stroke-linecap="round" stroke-linejoin="round" stroke-width="2"/>
    <line id="Line_350" data-name="Line 350" transform="translate(490.714 261.065)" fill="none" stroke="#000" stroke-linecap="round" stroke-linejoin="round" stroke-width="2"/>
    <g id="Cloud">
      <path id="Path_659" data-name="Path 659" d="M524.41,279.919a7.07,7.07,0,0,0-13.395-3.163,3.993,3.993,0,0,0-6.255,3.293h-.605a4.75,4.75,0,0,0,0,9.5H524.41a4.816,4.816,0,0,0,0-9.63Z" fill="#fff" stroke="#000" stroke-linecap="round" stroke-linejoin="round" stroke-width="2"/>
    </g>
    <g id="Cloud-2" data-name="Cloud">
      <path id="Path_660" data-name="Path 660" d="M414.508,219.628a7.07,7.07,0,0,1,13.4-3.163,3.993,3.993,0,0,1,6.255,3.293h.605a4.75,4.75,0,0,1,0,9.5H414.508a4.816,4.816,0,0,1,0-9.63Z" fill="#fff" stroke="#000" stroke-linecap="round" stroke-linejoin="round" stroke-width="2"/>
    </g>
    <g id="Group_550" data-name="Group 550">
      <path id="Path_661" data-name="Path 661" d="M413.519,286.169a2.882,2.882,0,0,1,5.367.263" fill="none" stroke="#1fced1" stroke-linecap="round" stroke-linejoin="round" stroke-width="2"/>
      <path id="Path_662" data-name="Path 662" d="M424.253,286.169a2.882,2.882,0,0,0-5.367.263" fill="none" stroke="#1fced1" stroke-linecap="round" stroke-linejoin="round" stroke-width="2"/>
    </g>
    <g id="Group_551" data-name="Group 551">
      <path id="Path_663" data-name="Path 663" d="M426.76,278.494a2.883,2.883,0,0,1,5.367.264" fill="none" stroke="#1fced1" stroke-linecap="round" stroke-linejoin="round" stroke-width="2"/>
      <path id="Path_664" data-name="Path 664" d="M437.494,278.494a2.883,2.883,0,0,0-5.367.264" fill="none" stroke="#1fced1" stroke-linecap="round" stroke-linejoin="round" stroke-width="2"/>
    </g>
    <line id="Line_351" data-name="Line 351" x1="9.157" transform="translate(415.479 244.624)" fill="none" stroke="#000" stroke-linecap="round" stroke-linejoin="round" stroke-width="2"/>
    <line id="Line_352" data-name="Line 352" x1="9.2" transform="translate(416.306 260.829)" fill="none" stroke="#000" stroke-linecap="round" stroke-linejoin="round" stroke-width="2"/>
    <line id="Line_353" data-name="Line 353" x2="13.469" transform="translate(406.114 253.888)" fill="none" stroke="#000" stroke-linecap="round" stroke-linejoin="round" stroke-width="2"/>
    <line id="Line_354" data-name="Line 354" transform="translate(424.635 253.888)" fill="none" stroke="#000" stroke-linecap="round" stroke-linejoin="round" stroke-width="2"/>
    <line id="Line_355" data-name="Line 355" transform="translate(410.339 244.624)" fill="none" stroke="#000" stroke-linecap="round" stroke-linejoin="round" stroke-width="2"/>
    <line id="Line_356" data-name="Line 356" x1="4.527" transform="translate(502.389 254.491)" fill="none" stroke="#000" stroke-linecap="round" stroke-linejoin="round" stroke-width="2"/>
    <line id="Line_357" data-name="Line 357" x2="3.785" transform="translate(430.686 250.331)" fill="none" stroke="#000" stroke-linecap="round" stroke-linejoin="round" stroke-width="2"/>
    <circle id="Ellipse_238" data-name="Ellipse 238" cx="7.144" cy="7.144" r="7.144" transform="translate(515.126 220.906)" fill="#1fced1" opacity="0.3"/>
  </g>
</svg>
