<svg xmlns="http://www.w3.org/2000/svg" viewBox="0 0 16 16"><defs><style>.cls-1{fill:#1fced1;}.cls-2{fill:#fff;}</style></defs><g id="Layer_2" data-name="Layer 2"><g id="Layer_1-2" data-name="Layer 1"><circle class="cls-1" cx="8" cy="8" r="8"/><path class="cls-2" d="M10.84,10.93c-.26,0-.35-.43-.35-.66a7.22,7.22,0,0,1,.3-1.39l1.41-5h-2l-.41,1.2A1.9,1.9,0,0,0,8,3.83c-2.7,0-4.6,3.19-4.6,5.62,0,1.46.75,2.72,2.33,2.72a3.35,3.35,0,0,0,2.82-2l0,0-.05.68a1.17,1.17,0,0,0,1.2,1.26c1.43,0,2.42-1.58,2.93-2.76l-.4-.17C12,9.67,11.43,10.93,10.84,10.93ZM6.53,11c-.64,0-.9-.67-.9-1.22,0-1.33,1.1-4.95,2.75-4.95a1,1,0,0,1,1,1.07C9.38,7.29,8.23,11,6.53,11Z"/></g></g></svg>