<?xml version="1.0" encoding="utf-8"?>
<!-- Generator: Adobe Illustrator 25.0.0, SVG Export Plug-In . SVG Version: 6.00 Build 0)  -->
<svg version="1.1" id="Layer_1" xmlns="http://www.w3.org/2000/svg" xmlns:xlink="http://www.w3.org/1999/xlink" x="0px" y="0px"
	 viewBox="0 0 700 405" style="enable-background:new 0 0 700 405;" xml:space="preserve">
<style type="text/css">
	.st0{fill:#1FCED1;}
</style>
<g id="Navy_Text_1_">
	<g>
		<path class="st0" d="M144,287.1c-4.4,0-6-7.3-6-11.1c0-5.1,3.5-18,5.1-23.4l23.7-84.8h-32.9l-7,20.3
			c-5.7-13.3-16.5-20.6-31.3-20.6C50,167.4,18,221.2,18,262.1c0,24.7,12.7,45.9,39.3,45.9c21.5,0,38-15.5,47.5-33.2l0.6,0.6l-1,11.4
			c-0.9,11.7,8.2,21.2,20.3,21.2c24.1,0,40.8-26.6,49.4-46.5l-6.6-2.8C163,265.9,153.8,287.1,144,287.1z M71.2,289.3
			c-10.8,0-15.2-11.4-15.2-20.6c0-22.5,18.7-83.6,46.5-83.6c11.1,0,16.8,7.9,16.8,18C119.3,226,100,289.3,71.2,289.3z"/>
		<path class="st0" d="M265.7,250.5l-8.1-2.5c-3.2,8.8-14.4,35.9-24.7,35.9c-6,0-6.3-8.5-6.3-12.7c0-8.5,3.9-21.8,6.3-30.3L280,66.9
			l-71.5-0.1l-2.8,10.6c8.5,0,26.8,0,26.8,12c0,7-5.8,29-7.9,36.3l-31.7,118c-2.8,10.9-6.7,25.4-6.7,36.3c0,16.6,8.8,27.1,25.4,27.1
			C240.3,307.2,257.2,274.1,265.7,250.5z"/>
		<path class="st0" d="M517.9,287.2c-4.7-0.1-7.6-4.2-7.5-8.1c0.4-11.1,27.2-111.4,27.2-111.4h-37.9c-1.8,5.2-7.1,28-13,52.4
			c-6.7,27.9-13.9,50.6-13.9,63.8c0,14.7,8.8,24.8,23.5,24.8c25.4,0,44.3-27.4,54.4-47.9l-6.2-2.9
			C539.1,266.1,529.3,287.6,517.9,287.2z"/>
		<path class="st0" d="M531.7,94.6c-11.7,0-21.2,9.1-21.2,20.9c0,11.7,9.4,20.9,21.2,20.9c11.4,0,20.5-9.8,20.5-20.9
			C552.2,104,543.1,94.6,531.7,94.6z"/>
		<path class="st0" d="M680,194.3c0-19.9-22.2-26.6-38.6-26.6c-49.1,0-83.9,46.2-83.9,93.4c0,29.1,16.8,47.2,45.6,47.2
			c27.2,0,47.5-19.6,62.1-41.2l-7.9-6c-10.4,12.7-24.7,29.8-42.4,29.8c-13.6,0-20.3-11.4-20.3-23.7c0-6,1-12,1.9-18
			C624,242.1,680,230.1,680,194.3z M638.2,177.2c7.6,0,11.7,5.7,11.7,13c0,25-29.4,42.4-50.7,48.8
			C603.7,221.5,615.4,177.2,638.2,177.2z"/>
		<path class="st0" d="M480.4,182.9l3.9-15.1h-33.2l8.4-34.9l3.5-14.1c3.9-18.7,7.4-38.1,14.1-56.4c2.8-7.4,7-18.7,16.9-18.7
			c14.1,0,9.5,24.3,29.6,24.3c8.8,0,16.2-8.5,16.2-16.9c0-17.6-21.1-21.5-34.9-21.5c-50,0-70.5,49-80.7,89.1l-3.5,14.1l-8,34.9
			h-69.5l3.7-15.6l3.5-14.1c3.9-18.7,7.4-38.1,14.1-56.4c2.8-7.4,7-18.7,16.9-18.7c14.1,0,9.5,24.3,29.6,24.3
			c8.8,0,16.2-8.5,16.2-16.9c0-17.6-21.1-21.5-34.9-21.5c-50,0-70.5,49-80.7,89.1l-3.5,14.1l-3.5,15.6h-32.6l-3.9,15.1h33.2
			l-24.5,103.8c-4.9,20.4-10.2,40.9-15.1,61.3c-1.8,6.3-3.5,17.6-12.7,17.6c-6,0-7-6.3-7.4-10.9c-0.7-8.1-5.6-15.5-15.2-15.5
			c-9.2,0-16.6,8.1-16.6,16.9c0,16.6,16.2,23.6,30.7,23.6c40.2,0,59.5-35.2,67.6-69.1l31.6-127.8h69.7l-20,84.6
			c-4.9,20.4-10.2,40.9-15.2,61.3c-1.8,6.3-3.5,17.6-12.7,17.6c-6,0-7-6.3-7.4-10.9c-0.7-8.1-5.6-15.5-15.1-15.5
			c-9.2,0-16.6,8.1-16.6,16.9c0,16.6,16.2,23.6,30.7,23.6c40.2,0,59.5-35.2,67.6-69.1l26.9-108.5H480.4z"/>
	</g>
</g>
</svg>
