<svg xmlns="http://www.w3.org/2000/svg" viewBox="0 0 262.62 138.9"><defs><style>.cls-1{fill:#fff;}</style></defs><g id="Layer_2" data-name="Layer 2"><g id="Layer_1-2" data-name="Layer 1"><g id="Artwork_1" data-name="Artwork 1"><g id="Artwork_1-2" data-name="Artwork 1"><path class="cls-1" d="M50,102.26c-1.76,0-2.39-2.89-2.39-4.4,0-2,1.38-7.16,2-9.29L59,54.91H46l-2.77,8a12.71,12.71,0,0,0-12.43-8.16C12.69,54.78,0,76.13,0,92.33c0,9.8,5,18.22,15.57,18.22,8.54,0,15.08-6.16,18.84-13.19l.25.25-.37,4.52a7.81,7.81,0,0,0,8,8.42c9.54,0,16.2-10.55,19.59-18.47L59.28,91C57.52,93.84,53.88,102.26,50,102.26ZM21.1,103c-4.27,0-6-4.52-6-8.16,0-8.92,7.41-33.16,18.46-33.16,4.4,0,6.66,3.14,6.66,7.16C40.19,77.91,32.53,103,21.1,103Z"/><path class="cls-1" d="M98.26,87.75l-3.21-1C93.79,90.27,89.32,101,85.26,101c-2.37,0-2.51-3.35-2.51-5,0-3.36,1.54-8.67,2.51-12l18.67-69.05-28.38,0L74.43,19.1c3.36,0,10.63,0,10.63,4.75,0,2.8-2.31,11.49-3.15,14.42L69.33,85.1c-1.12,4.33-2.66,10.06-2.66,14.39,0,6.57,3.5,10.77,10.07,10.77C88.2,110.26,94.91,97.12,98.26,87.75Z"/><path class="cls-1" d="M198.33,102.32a3.08,3.08,0,0,1-3-3.24c.14-4.38,10.8-44.17,10.8-44.17h-15C190.4,57,188.31,66,186,75.71c-2.66,11.07-5.5,20.06-5.5,25.31,0,5.82,3.49,9.83,9.31,9.83,10.08,0,17.58-10.86,21.59-19l-2.46-1.17C206.73,93.91,202.85,102.44,198.33,102.32Z"/><path class="cls-1" d="M203.77,25.79a8.27,8.27,0,1,0,8.15,8.27A8.28,8.28,0,0,0,203.77,25.79Z"/><path class="cls-1" d="M262.62,65.35c0-7.91-8.8-10.55-15.33-10.55C227.83,54.8,214,73.14,214,91.85c0,11.56,6.66,18.72,18.09,18.72,10.8,0,18.84-7.79,24.61-16.33l-3.14-2.39c-4.14,5-9.79,11.81-16.83,11.81-5.4,0-8-4.52-8-9.42a45.8,45.8,0,0,1,.76-7.16C240.39,84.32,262.62,79.55,262.62,65.35ZM246,58.57c3,0,4.64,2.26,4.64,5.15,0,9.92-11.68,16.83-20.09,19.34C232.35,76.15,237,58.57,246,58.57Z"/><path class="cls-1" d="M183.45,60.91l1.54-6H171.76l3.41-14,1.4-5.59c1.54-7.41,2.94-15.09,5.59-22.36,1.12-2.94,2.8-7.41,6.71-7.41,5.59,0,3.78,9.65,11.74,9.65,3.5,0,6.43-3.36,6.43-6.71,0-7-8.38-8.53-13.83-8.53-19.85,0-28,19.43-32,35.36L159.8,41l-3.25,14H129l1.54-6.31,1.4-5.59c1.54-7.41,2.93-15.09,5.59-22.36,1.12-2.94,2.8-7.41,6.71-7.41,5.59,0,3.77,9.64,11.74,9.64,3.5,0,6.43-3.35,6.43-6.7,0-7-8.39-8.53-13.84-8.53-19.84,0-27.95,19.43-32,35.36l-1.39,5.59-1.47,6.31H100.78l-1.53,6h13L102.7,102c-2,8.1-4.06,16.21-6,24.32-.7,2.51-1.4,7-5,7-2.37,0-2.79-2.52-2.93-4.34-.28-3.21-2.24-6.15-6-6.15a6.78,6.78,0,0,0-6.57,6.71c0,6.57,6.43,9.37,12.16,9.37,15.93,0,23.62-14,26.84-27.4L127.5,60.91h27.65l-7.79,33.44c-2,8.1-4.05,16.21-6,24.32-.7,2.51-1.4,7-5,7-2.38,0-2.8-2.52-2.94-4.34-.28-3.21-2.23-6.15-6-6.15a6.78,6.78,0,0,0-6.57,6.71c0,6.57,6.43,9.37,12.16,9.37,15.94,0,23.62-14,26.84-27.4l10.5-42.94Z"/></g></g></g></g></svg>