<?xml version="1.0" encoding="utf-8"?>
<!-- Generator: Adobe Illustrator 25.2.3, SVG Export Plug-In . SVG Version: 6.00 Build 0)  -->
<svg version="1.1" id="Layer_1" xmlns="http://www.w3.org/2000/svg" xmlns:xlink="http://www.w3.org/1999/xlink" x="0px" y="0px"
	 viewBox="0 0 498.9 139" style="enable-background:new 0 0 498.9 139;" xml:space="preserve">
<style type="text/css">
	.st0{fill:#1FCED1;}
</style>
<g id="alffie.com_carbon_2_">
	<g id="alffie.com_carbon_3_">
		<g>
			<path class="st0" d="M50,102.4c-1.8,0-2.4-2.9-2.4-4.4c0-2,1.4-7.2,2-9.3L59,55.1H46l-2.8,8c-2.3-5.3-6.5-8.2-12.4-8.2
				C12.7,54.9,0,76.3,0,92.5c0,9.8,5,18.2,15.6,18.2c8.5,0,15.1-6.2,18.8-13.2l0.3,0.3l-0.4,4.5c-0.4,4.6,3.3,8.4,8,8.4
				c9.5,0,16.2-10.6,19.6-18.5l-2.6-1.1C57.5,94,53.9,102.4,50,102.4z M21.1,103.2c-4.3,0-6-4.5-6-8.2c0-8.9,7.4-33.2,18.5-33.2
				c4.4,0,6.7,3.1,6.7,7.2C40.2,78,32.5,103.2,21.1,103.2z"/>
			<path class="st0" d="M98.3,88.2l-3.2-1c-1.3,3.5-5.7,14.3-9.8,14.3c-2.4,0-2.5-3.4-2.5-5c0-3.4,1.5-8.7,2.5-12l18.7-69l-28.4,0
				l-1.1,4.2c3.4,0,10.6,0,10.6,4.8c0,2.8-2.3,11.5-3.1,14.4L69.3,85.5c-1.1,4.3-2.7,10.1-2.7,14.4c0,6.6,3.5,10.8,10.1,10.8
				C88.2,110.7,94.9,97.6,98.3,88.2z"/>
			<path class="st0" d="M203.8,25.9c-4.7,0-8.4,3.6-8.4,8.3c0,4.7,3.7,8.3,8.4,8.3c4.5,0,8.1-3.9,8.1-8.3
				C211.9,29.7,208.3,25.9,203.8,25.9z"/>
			<path class="st0" d="M198.3,102.2c-1.9-0.1-3-1.7-3-3.2c0.1-4.4,10.8-44.2,10.8-44.2h-15c-0.7,2.1-2.8,11.1-5.1,20.8
				c-2.7,11.1-5.5,20.1-5.5,25.3c0,5.8,3.5,9.8,9.3,9.8c10.1,0,17.6-10.9,21.6-19l-2.5-1.2C206.7,93.8,202.9,102.3,198.3,102.2z"/>
			<path class="st0" d="M262.6,65.5c0-7.9-8.8-10.6-15.3-10.6C227.8,54.9,214,73.3,214,92c0,11.6,6.7,18.7,18.1,18.7
				c10.8,0,18.8-7.8,24.6-16.3l-3.1-2.4c-4.1,5-9.8,11.8-16.8,11.8c-5.4,0-8-4.5-8-9.4c0-2.4,0.4-4.8,0.8-7.2
				C240.4,84.5,262.6,79.7,262.6,65.5z M246,58.7c3,0,4.6,2.3,4.6,5.1c0,9.9-11.7,16.8-20.1,19.3C232.3,76.3,237,58.7,246,58.7z"/>
			<path class="st0" d="M183.5,60.3l1.5-5.6h-13.2l3.3-13.7l1.4-5.6c1.5-7.4,2.9-15.1,5.6-22.4c1.1-2.9,2.8-7.4,6.7-7.4
				c5.6,0,3.8,9.6,11.7,9.6c3.5,0,6.4-3.4,6.4-6.7c0-7-8.4-8.5-13.8-8.5c-19.8,0-28,19.4-32,35.4l-1.4,5.6l-3.2,13.7H129l1.5-6
				l1.4-5.6c1.5-7.4,2.9-15.1,5.6-22.4c1.1-2.9,2.8-7.4,6.7-7.4c5.6,0,3.8,9.6,11.7,9.6c3.5,0,6.4-3.4,6.4-6.7c0-7-8.4-8.5-13.8-8.5
				c-19.8,0-28,19.4-32,35.4l-1.4,5.6l-1.4,6h-13l-1.5,5.6h13.2l-9.7,41.8c-2,8.1-4.1,16.2-6,24.3c-0.7,2.5-1.4,7-5,7
				c-2.4,0-2.8-2.5-2.9-4.3c-0.3-3.2-2.2-6.2-6-6.2c-3.6,0-6.6,3.2-6.6,6.7c0,6.6,6.4,9.4,12.2,9.4c15.9,0,23.6-14,26.8-27.4
				l12.5-51.3h27.6l-8,34.1c-2,8.1-4.1,16.2-6,24.3c-0.7,2.5-1.4,7-5,7c-2.4,0-2.8-2.5-2.9-4.3c-0.3-3.2-2.2-6.2-6-6.2
				c-3.6,0-6.6,3.2-6.6,6.7c0,6.6,6.4,9.4,12.2,9.4c15.9,0,23.6-14,26.8-27.4l10.7-43.6H183.5z"/>
		</g>
		<g>
			<path class="st0" d="M273,111.1c-3.5,0-6.3-2.7-6.3-6.3c0-3.5,2.7-6.3,6.3-6.3c3.3,0,6.1,2.7,6.1,6.3
				C279.1,108.4,276.4,111.1,273,111.1z"/>
			<path class="st0" d="M311.9,54.2c13.7,0,22.7,7.1,25.6,18.7h-9.9c-1.9-6.7-7.5-10.9-15.7-10.9c-10.1,0-17.6,7.2-17.6,20.7
				c0,13.7,7.5,20.9,17.6,20.9c8.2,0,13.6-3.9,15.7-10.9h9.9c-2.8,11-11.8,18.7-25.6,18.7c-15.8,0-27-11.1-27-28.7
				C284.9,65.3,296.1,54.2,311.9,54.2z"/>
			<path class="st0" d="M371.3,111.4c-15.7,0-27.6-11.1-27.6-28.7c0-17.5,12.3-28.5,28-28.5c15.8,0,28,11,28,28.5
				C399.7,100.3,387,111.4,371.3,111.4z M371.3,103.3c9.6,0,19-6.6,19-20.6c0-13.9-9.2-20.5-18.7-20.5c-9.7,0-18.5,6.6-18.5,20.5
				C353.1,96.7,361.7,103.3,371.3,103.3z"/>
			<path class="st0" d="M489.8,79.2c0-11.3-6.1-17.1-15.1-17.1c-9.3,0-15.7,6-15.7,17.9v30.5h-9.1V79.2c0-11.3-6.1-17.1-15.1-17.1
				c-9.3,0-15.7,6-15.7,17.9v30.5h-9.2V55.1h9.2v8c3.6-5.9,10.2-9,17.5-9c9.1,0,16.7,4,20.3,12.3c3.2-8,11.1-12.3,19.6-12.3
				c12.6,0,22.4,7.9,22.4,23.7v32.6h-9.1V79.2z"/>
		</g>
	</g>
</g>
</svg>
