<svg xmlns="http://www.w3.org/2000/svg" viewBox="0 0 219.28 66.74"><defs><style>.cls-1{fill:#fff;}</style></defs><g id="Layer_2" data-name="Layer 2"><g id="nrt_logo_coloured"><g id="Apple_App_Store_Download" data-name="Apple App Store Download"><rect width="219.28" height="66.74" rx="9.98"/><path class="cls-1" d="M69.88,30.07H75l7.59,21.47H77.69l-1.42-4.41h-7.9l-1.46,4.41H62.22Zm-.29,13.36h5.49L72.37,35Z"/><path class="cls-1" d="M98.3,37.37q1.94,2.06,1.94,6c0,2.79-.64,4.93-1.9,6.39A6.16,6.16,0,0,1,93.45,52a5.11,5.11,0,0,1-3.16-1,6.12,6.12,0,0,1-1.35-1.53v8.28H84.83V35.67h4V38a6.65,6.65,0,0,1,1.43-1.63,5.29,5.29,0,0,1,3.31-1.06A6.29,6.29,0,0,1,98.3,37.37Zm-3.19,3a3,3,0,0,0-2.74-1.41,3.14,3.14,0,0,0-3.14,2.14A8.17,8.17,0,0,0,88.79,44c0,1.84.5,3.14,1.49,3.88a3.36,3.36,0,0,0,2.09.66A3.06,3.06,0,0,0,95,47.17,6.21,6.21,0,0,0,96,43.6,6.28,6.28,0,0,0,95.11,40.35Z"/><path class="cls-1" d="M116.51,37.37c1.3,1.37,1.94,3.38,1.94,6s-.63,4.93-1.89,6.39a6.16,6.16,0,0,1-4.89,2.2,5.15,5.15,0,0,1-3.17-1,6.12,6.12,0,0,1-1.35-1.53v8.28h-4.1V35.67h4V38a6.67,6.67,0,0,1,1.44-1.63,5.29,5.29,0,0,1,3.31-1.06A6.25,6.25,0,0,1,116.51,37.37Zm-3.18,3a3,3,0,0,0-2.75-1.41,3.13,3.13,0,0,0-3.13,2.14A8.17,8.17,0,0,0,107,44c0,1.84.49,3.14,1.48,3.88a3.41,3.41,0,0,0,2.09.66,3,3,0,0,0,2.67-1.34,6.14,6.14,0,0,0,.92-3.57A6.27,6.27,0,0,0,113.33,40.35Z"/><path class="cls-1" d="M133.24,44.91a4.32,4.32,0,0,0,.81,2.2,4.79,4.79,0,0,0,3.82,1.33,8.39,8.39,0,0,0,2.64-.35,2.51,2.51,0,0,0,1.91-2.49,1.84,1.84,0,0,0-.94-1.65,10.07,10.07,0,0,0-3-1l-2.32-.51a14.75,14.75,0,0,1-4.71-1.65,5.25,5.25,0,0,1-2.17-4.64,6.14,6.14,0,0,1,2.13-4.79c1.41-1.28,3.49-1.91,6.23-1.91a9.56,9.56,0,0,1,5.86,1.8,6.36,6.36,0,0,1,2.54,5.22h-4.31A3.08,3.08,0,0,0,140,33.71a6,6,0,0,0-2.67-.53,5.17,5.17,0,0,0-2.84.69,2.24,2.24,0,0,0-1.06,2,1.83,1.83,0,0,0,1.05,1.71,12.64,12.64,0,0,0,2.85.89l3.77.89a9.58,9.58,0,0,1,3.71,1.56,5.25,5.25,0,0,1,1.92,4.38,6.17,6.17,0,0,1-2.28,4.89,9.6,9.6,0,0,1-6.42,1.94,10.54,10.54,0,0,1-6.67-1.91A6.34,6.34,0,0,1,129,44.91Z"/><path class="cls-1" d="M147.93,38.77v-3h2.21V31.38h4.11v4.43h2.58v3h-2.58v8.39c0,.65.08,1.05.25,1.21a2.71,2.71,0,0,0,1.51.24h.4l.42,0v3.1l-2,.08c-2,.06-3.3-.27-4-1a3,3,0,0,1-.7-2.2V38.77Z"/><path class="cls-1" d="M172.73,49.6c-1.34,1.65-3.38,2.48-6.1,2.48s-4.77-.83-6.11-2.48a9.9,9.9,0,0,1,0-11.93q2-2.51,6.11-2.51c2.72,0,4.76.84,6.1,2.51a9.86,9.86,0,0,1,0,11.93Zm-3.32-2.3a6,6,0,0,0,1-3.68,6,6,0,0,0-1-3.67,3.7,3.7,0,0,0-5.6,0,5.92,5.92,0,0,0-1,3.67,6,6,0,0,0,1,3.68,3.67,3.67,0,0,0,5.6,0Z"/><path class="cls-1" d="M186.53,35.29l.35,0v4.25l-.7-.06h-.49c-1.67,0-2.79.54-3.37,1.63a6.33,6.33,0,0,0-.48,2.82v7.59h-4.18V35.67h4v2.76a8.66,8.66,0,0,1,1.67-2.17,4.57,4.57,0,0,1,3-1Z"/><path class="cls-1" d="M199.66,36a6.44,6.44,0,0,1,2.74,2.35,7.71,7.71,0,0,1,1.26,3.28,19.28,19.28,0,0,1,.14,3.15H192.24a3.83,3.83,0,0,0,1.66,3.35,4.29,4.29,0,0,0,2.29.59,3.21,3.21,0,0,0,3.16-1.82h4.23a5.18,5.18,0,0,1-1.53,2.87,7.72,7.72,0,0,1-6,2.32,8.63,8.63,0,0,1-5.59-2q-2.41-1.95-2.42-6.35a8.6,8.6,0,0,1,2.19-6.33,7.68,7.68,0,0,1,5.67-2.2A9,9,0,0,1,199.66,36Zm-6.21,3.58A4.33,4.33,0,0,0,192.34,42h7.15a3.45,3.45,0,0,0-1.1-2.51,3.63,3.63,0,0,0-2.46-.85A3.29,3.29,0,0,0,193.45,39.57Z"/><path class="cls-1" d="M68.1,12.93a3.29,3.29,0,0,1,1.7,1.26,4.53,4.53,0,0,1,.72,1.62,8.2,8.2,0,0,1,.19,1.65,6.68,6.68,0,0,1-.8,3.38,3.64,3.64,0,0,1-3.36,1.87H62.24v-10h4.31A5.15,5.15,0,0,1,68.1,12.93Zm-3.83,1.51V21H66.2a2.07,2.07,0,0,0,2.06-1.46,5,5,0,0,0,.32-1.9,4.83,4.83,0,0,0-.47-2.35,2,2,0,0,0-1.91-.82Z"/><path class="cls-1" d="M78.28,21.8a4.06,4.06,0,0,1-5.68,0,4.57,4.57,0,0,1,0-5.55,4,4,0,0,1,5.68,0A4.26,4.26,0,0,1,79.22,19,4.25,4.25,0,0,1,78.28,21.8Zm-1.54-1.07A2.81,2.81,0,0,0,77.19,19a2.81,2.81,0,0,0-.45-1.71,1.55,1.55,0,0,0-1.31-.6,1.53,1.53,0,0,0-1.3.6A2.74,2.74,0,0,0,73.67,19a2.74,2.74,0,0,0,.46,1.71,1.52,1.52,0,0,0,1.3.61A1.53,1.53,0,0,0,76.74,20.73Z"/><path class="cls-1" d="M84.09,15.31h2l1.13,5.33,1.15-5.33h2l-2.14,7.4h-2l-1.16-5.39-1.17,5.39h-2l-2.07-7.4h2.07L83,20.62Z"/><path class="cls-1" d="M97.37,15.74a2.45,2.45,0,0,1,.73,2v5h-2v-4.5a2.13,2.13,0,0,0-.16-.9,1.09,1.09,0,0,0-1.08-.57,1.34,1.34,0,0,0-1.34.84,3,3,0,0,0-.19,1.12v4H91.42V15.33h1.87v1.08a3.47,3.47,0,0,1,.71-.83,2.45,2.45,0,0,1,1.5-.44A2.84,2.84,0,0,1,97.37,15.74Z"/><path class="cls-1" d="M101.87,22.71H99.93v-10h1.94Z"/><path class="cls-1" d="M109.92,21.8a4.07,4.07,0,0,1-5.69,0A4.3,4.3,0,0,1,103.3,19a4.31,4.31,0,0,1,.93-2.77,4,4,0,0,1,5.69,0,4.31,4.31,0,0,1,.93,2.77A4.3,4.3,0,0,1,109.92,21.8Zm-1.55-1.07a2.81,2.81,0,0,0,.46-1.71,2.81,2.81,0,0,0-.46-1.71,1.53,1.53,0,0,0-1.3-.6,1.55,1.55,0,0,0-1.31.6,2.81,2.81,0,0,0-.45,1.71,2.81,2.81,0,0,0,.45,1.71,1.53,1.53,0,0,0,1.31.61A1.52,1.52,0,0,0,108.37,20.73Z"/><path class="cls-1" d="M115.17,18.21a3.21,3.21,0,0,0,.77-.17.57.57,0,0,0,.41-.55.66.66,0,0,0-.31-.63,2.13,2.13,0,0,0-.94-.17,1.24,1.24,0,0,0-1,.34,1.41,1.41,0,0,0-.27.68H112a2.87,2.87,0,0,1,.55-1.6,3.17,3.17,0,0,1,2.64-1,4.75,4.75,0,0,1,2.17.48,1.85,1.85,0,0,1,.94,1.82v3.39c0,.23,0,.52,0,.85a1.08,1.08,0,0,0,.11.52.74.74,0,0,0,.29.22v.29h-2.1a2.83,2.83,0,0,1-.13-.42c0-.14,0-.28,0-.45a4.21,4.21,0,0,1-.93.74,2.8,2.8,0,0,1-1.42.36,2.43,2.43,0,0,1-1.67-.58,2.05,2.05,0,0,1-.65-1.62,2.1,2.1,0,0,1,1.05-2,4.69,4.69,0,0,1,1.71-.48Zm1.18.9a2.25,2.25,0,0,1-.38.19,2.78,2.78,0,0,1-.52.13l-.44.08a2.62,2.62,0,0,0-.88.27.87.87,0,0,0-.46.82.83.83,0,0,0,.28.71,1,1,0,0,0,.68.22,2,2,0,0,0,1.16-.36,1.57,1.57,0,0,0,.56-1.34Z"/><path class="cls-1" d="M123.88,15.43a2.38,2.38,0,0,1,.85.82V12.72h2v10h-1.88v-1a2.7,2.7,0,0,1-.94,1,2.63,2.63,0,0,1-1.32.3,2.75,2.75,0,0,1-2.18-1.05,4,4,0,0,1-.88-2.69,4.66,4.66,0,0,1,.87-3,2.84,2.84,0,0,1,2.33-1.08A2.31,2.31,0,0,1,123.88,15.43Zm.48,5.27a2.75,2.75,0,0,0,.43-1.58,2.41,2.41,0,0,0-.69-1.94,1.46,1.46,0,0,0-1-.35,1.34,1.34,0,0,0-1.24.64,2.89,2.89,0,0,0-.4,1.59,3,3,0,0,0,.41,1.64,1.36,1.36,0,0,0,1.22.61A1.43,1.43,0,0,0,124.36,20.7Z"/><path class="cls-1" d="M138.47,21.8a4.06,4.06,0,0,1-5.68,0,4.57,4.57,0,0,1,0-5.55,4,4,0,0,1,5.68,0,4.26,4.26,0,0,1,.94,2.77A4.25,4.25,0,0,1,138.47,21.8Zm-1.54-1.07a2.81,2.81,0,0,0,.45-1.71,2.81,2.81,0,0,0-.45-1.71,1.55,1.55,0,0,0-1.31-.6,1.53,1.53,0,0,0-1.3.6,2.74,2.74,0,0,0-.46,1.71,2.74,2.74,0,0,0,.46,1.71,1.52,1.52,0,0,0,1.3.61A1.53,1.53,0,0,0,136.93,20.73Z"/><path class="cls-1" d="M146.75,15.74a2.42,2.42,0,0,1,.73,2v5h-2v-4.5a2,2,0,0,0-.16-.9,1.07,1.07,0,0,0-1.07-.57,1.33,1.33,0,0,0-1.34.84,2.78,2.78,0,0,0-.19,1.12v4h-1.93V15.33h1.87v1.08a3.46,3.46,0,0,1,.7-.83,2.5,2.5,0,0,1,1.51-.44A2.81,2.81,0,0,1,146.75,15.74Z"/><path class="cls-1" d="M152.38,16.76V15.38h1V13.32h1.91v2.06h1.2v1.38h-1.2v3.9q0,.46.12.57c.07.08.31.11.7.11h.38v1.44l-.91,0a2.47,2.47,0,0,1-1.88-.48,1.43,1.43,0,0,1-.32-1V16.76Z"/><path class="cls-1" d="M163.08,15.35a2.16,2.16,0,0,1,.91.73,1.93,1.93,0,0,1,.37.85,9.69,9.69,0,0,1,.07,1.43v4.35h-2V18.2a1.92,1.92,0,0,0-.21-1,1,1,0,0,0-1-.52,1.37,1.37,0,0,0-1.16.52,2.37,2.37,0,0,0-.39,1.46v4h-1.93v-10h1.93v3.53a2.36,2.36,0,0,1,1-.9,2.72,2.72,0,0,1,1.16-.25A3.34,3.34,0,0,1,163.08,15.35Z"/><path class="cls-1" d="M171.07,15.46a3,3,0,0,1,1.27,1.1,3.56,3.56,0,0,1,.59,1.52,9.52,9.52,0,0,1,.07,1.47h-5.39a1.79,1.79,0,0,0,.77,1.56,1.94,1.94,0,0,0,1.07.28,1.6,1.6,0,0,0,1.07-.34,1.51,1.51,0,0,0,.4-.51h2a2.42,2.42,0,0,1-.71,1.34A3.59,3.59,0,0,1,169.4,23a4.07,4.07,0,0,1-2.61-.91,3.61,3.61,0,0,1-1.13-3,4,4,0,0,1,1-2.95,3.58,3.58,0,0,1,2.65-1A4.25,4.25,0,0,1,171.07,15.46Zm-2.9,1.67a2,2,0,0,0-.51,1.15H171a1.61,1.61,0,0,0-.52-1.17,1.65,1.65,0,0,0-1.14-.4A1.56,1.56,0,0,0,168.17,17.13Z"/><path class="cls-1" d="M43.54,25.9a7.38,7.38,0,0,0-7.71-3.73,24.86,24.86,0,0,0-4.69,1.27,2.9,2.9,0,0,1-2.06-.16,17.68,17.68,0,0,1-1.83-.64,8,8,0,0,0-8.34,1s-6.36,4.84-3.5,15.65c0,0,.71,4.45,5.56,10.65,0,0,2.07,2.78,6,.88a6.36,6.36,0,0,1,6.52.08s4,1.82,5.88-.8c0,0,4.05-4.61,4.85-8.74,0,0-4.53-2.78-4.53-7.87A9.3,9.3,0,0,1,43.54,25.9Z"/><path class="cls-1" d="M30.21,21.29s-.45,0,0-2A8.91,8.91,0,0,1,37,13S37.76,19.15,30.21,21.29Z"/></g></g></g></svg>