<svg id="facebook" xmlns="http://www.w3.org/2000/svg" width="50" height="49.9" viewBox="0 0 50 49.9">
  <path id="Path_780" data-name="Path 780" d="M171.634,578.055a25,25,0,1,0-28.9,24.7v-17.5h-6.3v-7.2h6.3v-5.5c0-6.3,3.7-9.7,9.4-9.7a38.292,38.292,0,0,1,5.6.5v6.2h-3.2c-3.1,0-4.1,1.9-4.1,3.9v4.7h6.9l-1.1,7.2h-5.8v17.5A25.244,25.244,0,0,0,171.634,578.055Z" transform="translate(-121.634 -553.055)" fill="#1877f2"/>
  <path id="Path_781" data-name="Path 781" d="M156.334,585.255l1.1-7.2h-6.9v-4.7c0-2,1-3.9,4.1-3.9h3.2v-6.2a38.292,38.292,0,0,0-5.6-.5c-5.7,0-9.4,3.5-9.4,9.7v5.5h-6.3v7.2h6.3v17.5a25.5,25.5,0,0,0,7.8,0v-17.4Z" transform="translate(-121.634 -553.055)" fill="#fff"/>
</svg>
