<svg xmlns="http://www.w3.org/2000/svg" xmlns:xlink="http://www.w3.org/1999/xlink" viewBox="0 0 219.27 66.73"><defs><style>.cls-1{fill:none;}.cls-2{clip-path:url(#clip-path);}.cls-3{fill:url(#linear-gradient);}.cls-4{fill:url(#linear-gradient-2);}.cls-5{fill:url(#linear-gradient-3);}.cls-6{fill:url(#linear-gradient-4);}.cls-7{fill:#fff;}</style><clipPath id="clip-path"><path class="cls-1" d="M13.4,51.78v-38a2.57,2.57,0,0,1,3.82-2.25L51,30.27a2.9,2.9,0,0,1,0,5.07L17.22,54A2.57,2.57,0,0,1,13.4,51.78Z"/></clipPath><linearGradient id="linear-gradient" x1="35.43" y1="32.81" x2="52.69" y2="32.81" gradientUnits="userSpaceOnUse"><stop offset="0" stop-color="#ffc900"/><stop offset="1" stop-color="#ffdb00"/></linearGradient><linearGradient id="linear-gradient-2" x1="3.17" y1="50.72" x2="28.23" y2="25.66" gradientUnits="userSpaceOnUse"><stop offset="0" stop-color="#00e9ff"/><stop offset="1" stop-color="#00cdff"/></linearGradient><linearGradient id="linear-gradient-3" x1="35.43" y1="32.98" x2="35.43" y2="47.49" gradientUnits="userSpaceOnUse"><stop offset="0" stop-color="#ff5455"/><stop offset="1" stop-color="#e13863"/></linearGradient><linearGradient id="linear-gradient-4" x1="46.05" y1="21.95" x2="25.61" y2="1.51" gradientUnits="userSpaceOnUse"><stop offset="0" stop-color="#00ed88"/><stop offset="1" stop-color="#00de87"/></linearGradient></defs><g id="Layer_2" data-name="Layer 2"><g id="nrt_logo_coloured"><g id="Artwork_9" data-name="Artwork 9"><rect width="219.27" height="66.73" rx="9.53"/><g class="cls-2"><rect class="cls-3" x="35.43" y="13.18" width="28.65" height="39.27"/><rect class="cls-4" x="6.75" y="11.25" width="28.65" height="43.13"/><polygon class="cls-5" points="40.84 62 21.82 62.24 13.95 54.36 35.43 32.87 56.92 54.36 40.84 62"/><polygon class="cls-6" points="35.18 2.26 19.5 5.77 13.95 11.33 35.43 32.82 56.92 11.33 35.18 2.26"/></g><path class="cls-7" d="M99.38,41.27a6.78,6.78,0,1,1-6.78-6.76A6.67,6.67,0,0,1,99.38,41.27Zm-3,0a3.82,3.82,0,1,0-3.81,4.09A3.89,3.89,0,0,0,96.41,41.27Z"/><path class="cls-7" d="M114,41.27a6.78,6.78,0,1,1-6.78-6.76A6.67,6.67,0,0,1,114,41.27Zm-3,0a3.82,3.82,0,1,0-3.81,4.09A3.89,3.89,0,0,0,111,41.27Z"/><path class="cls-7" d="M128,34.92V47.05c0,5-2.94,7-6.42,7a6.42,6.42,0,0,1-6-4L118.18,49a3.73,3.73,0,0,0,3.4,2.39c2.23,0,3.61-1.37,3.61-3.95v-1h-.11A4.58,4.58,0,0,1,121.53,48a6.76,6.76,0,0,1,0-13.51A4.67,4.67,0,0,1,125.08,36h.11v-1.1Zm-2.6,6.37c0-2.38-1.59-4.12-3.61-4.12A3.9,3.9,0,0,0,118,41.29a3.87,3.87,0,0,0,3.76,4.07A3.78,3.78,0,0,0,125.4,41.29Z"/><path class="cls-7" d="M132.65,27.81v19.8h-2.9V27.81Z"/><path class="cls-7" d="M143.92,43.49l2.3,1.54a6.73,6.73,0,0,1-5.63,3,6.61,6.61,0,0,1-6.7-6.76,6.42,6.42,0,0,1,6.37-6.75,6.27,6.27,0,0,1,5.78,4.3l.31.76-9,3.74a3.43,3.43,0,0,0,3.27,2,3.86,3.86,0,0,0,3.33-1.87Zm-7.09-2.43,6-2.51a2.62,2.62,0,0,0-2.51-1.43A3.71,3.71,0,0,0,136.83,41.06Z"/><path class="cls-7" d="M74.88,39.51V36.65h9.65a8.88,8.88,0,0,1,.15,1.72,9.51,9.51,0,0,1-2.48,6.71A9.6,9.6,0,0,1,74.88,48a10.49,10.49,0,1,1,0-21,10,10,0,0,1,7.19,2.89l-2,2a7.28,7.28,0,0,0-5.17-2.05,7.62,7.62,0,0,0,0,15.24,7,7,0,0,0,5.29-2.1,5.92,5.92,0,0,0,1.56-3.54Z"/><path class="cls-7" d="M156.32,39.62v8h-3V27.93h3.36a15,15,0,0,1,3.73.35,5,5,0,0,1,2.25,1.3,5.59,5.59,0,0,1,1.69,4.18A5.38,5.38,0,0,1,162.57,38a7.18,7.18,0,0,1-4.88,1.58Zm0-2.75h1.1q4.1,0,4.09-3.15t-4.21-3h-1Z"/><path class="cls-7" d="M169.76,26.09V47.61h-2.87V26.09Z"/><path class="cls-7" d="M182.54,35.2h2.88V47.61h-2.88v-1.3a5.52,5.52,0,0,1-8.07-.21,6.91,6.91,0,0,1-1.67-4.74,6.72,6.72,0,0,1,1.67-4.65,5.38,5.38,0,0,1,4.18-1.86,5.3,5.3,0,0,1,3.89,1.79Zm-6.81,6.16a4.33,4.33,0,0,0,1,2.91,3.11,3.11,0,0,0,2.47,1.13,3.28,3.28,0,0,0,2.57-1.09,4.68,4.68,0,0,0,0-5.76,3.23,3.23,0,0,0-2.54-1.11,3.18,3.18,0,0,0-2.48,1.12A4.16,4.16,0,0,0,175.73,41.36Z"/><path class="cls-7" d="M193.18,45.3,187.6,35.2h3.32l3.8,7.13,3.54-7.13h3.24l-9.89,19.16h-3.28Z"/><path class="cls-7" d="M73.78,14.2H71.54A2.44,2.44,0,0,0,69.26,13a2.9,2.9,0,0,0-2.94,3.17,2.92,2.92,0,0,0,3,3.19,2.63,2.63,0,0,0,2.74-2.23H68.76V15.59H74v1.7a4.73,4.73,0,0,1-4.73,3.77,4.8,4.8,0,0,1-5-4.94,4.81,4.81,0,0,1,4.94-5A4.47,4.47,0,0,1,73.78,14.2Z"/><path class="cls-7" d="M81.08,12.86H77.4v2.43h3.27v1.54H77.4V19.4h3.68V21H75.46V11.27h5.62Z"/><path class="cls-7" d="M82.33,11.29h7.11v1.57H86.86V21H84.92V12.86H82.33Z"/><path class="cls-7" d="M94.17,11.29h1.94V21H94.17Z"/><path class="cls-7" d="M97.52,11.29h7.11v1.57H102V21H100.1V12.86H97.52Z"/><path class="cls-7" d="M113.85,21.08a4.88,4.88,0,0,1-5-5,5,5,0,0,1,9.93,0A4.86,4.86,0,0,1,113.85,21.08Zm0-1.74a2.93,2.93,0,0,0,3-3.23,3,3,0,1,0-5.93,0A2.93,2.93,0,0,0,113.85,19.34Z"/><path class="cls-7" d="M128.55,11.27V21h-2l-4.4-6.65V21h-1.94V11.27h1.94l4.4,6.67V11.27Z"/></g></g></g></svg>