<svg xmlns="http://www.w3.org/2000/svg" viewBox="0 0 248.74 180.15"><defs><style>.cls-1{fill:#fff;}</style></defs><g id="Layer_2" data-name="Layer 2"><g id="nrt_logo_coloured"><polygon class="cls-1" points="160.62 92.17 156.7 88.38 96.9 88.38 91.51 93.78 129.67 93.78 133.66 97.77 156.56 97.93 160.62 92.17"/><polygon class="cls-1" points="144.35 115.17 148.18 109.78 144.54 106.07 109.41 106.07 104.02 111.46 140.45 111.46 144.35 115.17"/><polygon class="cls-1" points="114.36 127.84 134.84 127.84 129.45 122.45 119.75 122.45 114.36 127.84"/><polygon class="cls-1" points="216.33 0 119.48 0 34.38 0 28.99 5.39 67.15 5.39 71.14 9.38 112.42 9.38 117.43 14.39 215.58 14.39 221.94 5.61 216.33 0"/><polygon class="cls-1" points="209.43 23.28 203.82 17.68 131.99 17.68 46.89 17.68 41.5 23.07 79.65 23.07 83.64 27.05 124.93 27.05 129.94 32.07 203.07 32.07 209.43 23.28"/><polygon class="cls-1" points="196.93 40.96 191.32 35.36 144.49 35.36 59.39 35.36 54 40.74 92.16 40.74 96.15 44.73 137.43 44.73 142.44 49.74 190.57 49.74 196.93 40.96"/><polygon class="cls-1" points="184.43 58.64 178.82 53.03 156.99 53.03 71.9 53.03 66.5 58.42 104.66 58.42 108.65 62.41 149.94 62.41 154.94 67.42 178.07 67.42 184.43 58.64"/><polygon class="cls-1" points="173.21 74.38 169.5 70.71 84.4 70.71 79.01 76.1 117.16 76.1 121.15 80.09 162.44 80.09 166.29 84.21 173.21 74.38"/><path class="cls-1" d="M9.34,142.6a3.37,3.37,0,0,1,.88,2.84v5.14l-6.09-8v0H0v0a3.75,3.75,0,0,1,1.15,3.25v6.85a3.34,3.34,0,0,1-.89,2.84v.05H4.09v-.05a3.37,3.37,0,0,1-.88-2.84v-5.24h.06l3.81,5.08a7.06,7.06,0,0,0,2.82,2.68,6.75,6.75,0,0,0,2.38.79V145.44a3.39,3.39,0,0,1,.87-2.84v0H9.34Z"/><path class="cls-1" d="M25.52,153.22l-3-8.28H18.55V145a1.15,1.15,0,0,1,.6.93,6,6,0,0,1-.35,1.29l-2.22,6.41a3.86,3.86,0,0,1-1.1,1.85v.05h3.29v-.05c-.29-.24-.58-.45-.58-.9a4.29,4.29,0,0,1,.29-1.16l.38-1.09h3.19l.53,1.56a1.29,1.29,0,0,1,.13.61,1.1,1.1,0,0,1-.66,1v.05H26.9v-.05A4.35,4.35,0,0,1,25.52,153.22Zm-6.19-2.4,1.06-3.17h0l1.11,3.17Z"/><path class="cls-1" d="M28.91,144.89l-.62,2.48.11-.08a2.87,2.87,0,0,1,1.82-.6,3,3,0,0,1,.8.07v6.46c0,.83.11,1.75-.67,2.25v.05H34.7v-.05a2.71,2.71,0,0,1-.71-2.28v-6.43a2.84,2.84,0,0,1,.82-.1,1.28,1.28,0,0,1,1.32.71l.55-2.43H29.22Z"/><path class="cls-1" d="M39.44,145c.79.5.68,1.41.68,2.25v6c0,.83.11,1.73-.68,2.23v.05h4.33v-.05c-.79-.5-.68-1.4-.68-2.23v-6c0-.84-.11-1.75.68-2.25v-.05H39.44Z"/><path class="cls-1" d="M53,144.68c-3.27,0-6,2.09-6,5.52s2.56,5.53,5.85,5.53,6-2,6-5.55S56.41,144.68,53,144.68ZM55.18,153A2.67,2.67,0,0,1,53,154.12a2.61,2.61,0,0,1-2.17-1.38,6.86,6.86,0,0,1-.76-3c0-1.65.84-3.47,2.73-3.47,2.21,0,2.93,2.62,2.93,4.45A3.68,3.68,0,0,1,55.18,153Z"/><path class="cls-1" d="M69.5,145a2.75,2.75,0,0,1,.7,2.3v4.16L65.27,145v-.05H61.92V145a3,3,0,0,1,.94,2.63v5.55a2.7,2.7,0,0,1-.73,2.3v.05h3.11v-.05a2.75,2.75,0,0,1-.71-2.3v-4.24h0L67.66,153a5.67,5.67,0,0,0,2.28,2.17,5.55,5.55,0,0,0,1.94.64v-8.56a2.75,2.75,0,0,1,.7-2.3v-.05H69.5Z"/><path class="cls-1" d="M78.91,155.47c-.28-.24-.57-.45-.57-.9a4,4,0,0,1,.29-1.16l.38-1.09H82.2l.52,1.56a1.29,1.29,0,0,1,.13.61,1.11,1.11,0,0,1-.65,1v.05h4.85v-.05a4.29,4.29,0,0,1-1.38-2.25l-3-8.28H78.69V145a1.13,1.13,0,0,1,.61.93,6.67,6.67,0,0,1-.35,1.29l-2.22,6.41a3.88,3.88,0,0,1-1.11,1.85v.05h3.29Zm1.63-7.82h0l1.11,3.17H79.48Z"/><path class="cls-1" d="M97.54,153.27a3.48,3.48,0,0,1-2.28.7,4,4,0,0,1-1.69-.27v-6.44c0-.86-.11-1.77.68-2.27v-.05H89.93V145c.78.5.67,1.41.67,2.25v6c0,.83.11,1.73-.67,2.23v.05h7Z"/><path class="cls-1" d="M100.53,155.47v.05h7l.61-2.25a3.49,3.49,0,0,1-2.28.7,4,4,0,0,1-1.69-.27v-6.44c0-.86-.11-1.77.68-2.27v-.05h-4.33V145c.79.5.68,1.41.68,2.25v6C101.21,154.07,101.32,155,100.53,155.47Z"/><path class="cls-1" d="M115.89,150.72l2.87-5.73v-.05h-2.89V145a.86.86,0,0,1,.5.85A3.1,3.1,0,0,1,116,147l-.9,1.83L113.23,145v-.05H109.5V145a2.79,2.79,0,0,1,1,1.24l2.39,4.49v2.48c0,.84.11,1.77-.67,2.27v.05h4.35v-.05a2.75,2.75,0,0,1-.7-2.3Z"/><path class="cls-1" d="M139.81,153.1l-2.36-3.95a3.5,3.5,0,0,0,2.36-3.14,3.24,3.24,0,0,0-1.76-3,5.09,5.09,0,0,0-2.66-.45h-5.88v0c1,.62.84,1.75.84,2.78v7.38c0,1,.13,2.16-.84,2.78v.05h5.34v-.05c-1-.62-.83-1.75-.83-2.78V150l2.3,4.33a2.29,2.29,0,0,0,2.65,1.33l2.75-.18A9.06,9.06,0,0,1,139.81,153.1ZM134,149v-4.48h.19a2,2,0,0,1,1.16.27,2.08,2.08,0,0,1,.79,1.69A2.58,2.58,0,0,1,134,149Z"/><path class="cls-1" d="M151.9,153.09h-.08a2.81,2.81,0,0,1-2.35.88,4.62,4.62,0,0,1-1.69-.24v-3h.53c.6,0,1.33-.07,1.55.58h.08V149h-.08a1.65,1.65,0,0,1-.59.08h-1.49v-2.6h.51c.79,0,1.71-.08,2.14.67h0v-2.33h0a1.79,1.79,0,0,1-.68.08h-5.62V145c.79.48.67,1.4.67,2.23v6c0,.83.12,1.73-.67,2.23v.05h7.12Z"/><path class="cls-1" d="M156.73,154.34a6.08,6.08,0,0,0,4.3,1.39,12,12,0,0,0,3.21-.39L165,153a7.36,7.36,0,0,1-3.47,1c-2.39,0-3.47-1.8-3.47-4,0-2,.63-3.71,2.83-3.71a4.82,4.82,0,0,1,2.68.83l-.11-2.25-2.43-.21a6.88,6.88,0,0,0-4.48,1.44,5.49,5.49,0,0,0-1.75,4A5.4,5.4,0,0,0,156.73,154.34Z"/><path class="cls-1" d="M174.16,144.68c-3.27,0-6,2.09-6,5.52s2.56,5.53,5.85,5.53,6-2,6-5.55S177.53,144.68,174.16,144.68Zm2.13,8.31a2.67,2.67,0,0,1-2.13,1.13,2.63,2.63,0,0,1-2.18-1.38,7,7,0,0,1-.75-3c0-1.65.83-3.47,2.73-3.47,2.2,0,2.92,2.62,2.92,4.45A3.68,3.68,0,0,1,176.29,153Z"/><path class="cls-1" d="M189.2,150.07a1.6,1.6,0,0,1,.61,1.56V154a2.85,2.85,0,0,1-.65.05c-2.33,0-3-2.28-3-4.25s.9-3.41,3-3.41a3.75,3.75,0,0,1,2.37.85h.08V145a9.56,9.56,0,0,0-2.49-.32c-3.34,0-6,2.13-6,5.58s2.71,5.47,6.05,5.47a12.81,12.81,0,0,0,3.43-.5V150H189.2Z"/><path class="cls-1" d="M203.14,145a2.73,2.73,0,0,1,.72,2.3v4.16L198.92,145v-.05h-3.35V145a3,3,0,0,1,.94,2.63v5.55a2.73,2.73,0,0,1-.72,2.3v.05h3.1v-.05a2.75,2.75,0,0,1-.71-2.3v-4.24h0l3.1,4.11a5.9,5.9,0,0,0,4.2,2.81v-8.56a2.73,2.73,0,0,1,.72-2.3v-.05h-3.1Z"/><path class="cls-1" d="M209.42,145c.78.5.67,1.41.67,2.25v6c0,.83.11,1.73-.67,2.23v.05h4.32v-.05c-.79-.5-.67-1.4-.67-2.23v-6c0-.84-.12-1.75.67-2.25v-.05h-4.32Z"/><path class="cls-1" d="M221.45,148.65c-.59-.25-1.52-.56-1.52-1.33s.77-1,1.39-1a4.25,4.25,0,0,1,2.27.76v-1.88a7.77,7.77,0,0,0-2.7-.49,4.67,4.67,0,0,0-2.79.78,2.84,2.84,0,0,0-1.19,2.33c0,3.6,4.9,3.2,4.9,5.16,0,.9-1,1.14-1.71,1.14a5.65,5.65,0,0,1-3.37-1.26l.52,2.32a8.62,8.62,0,0,0,3.12.58,5,5,0,0,0,3.12-.84,3.12,3.12,0,0,0,1.28-2.6,3,3,0,0,0-1.18-2.43A7.93,7.93,0,0,0,221.45,148.65Z"/><path class="cls-1" d="M233,154a4.62,4.62,0,0,1-1.69-.24v-3h.53c.6,0,1.34-.07,1.56.58h.08V149h-.08a1.78,1.78,0,0,1-.6.08h-1.49v-2.6h.52c.78,0,1.69-.08,2.13.67h.05v-2.33H234a1.76,1.76,0,0,1-.67.08H227.7V145c.79.48.68,1.4.68,2.23v6c0,.83.11,1.73-.68,2.23v.05h7.12l.65-2.43h-.09A2.77,2.77,0,0,1,233,154Z"/><path class="cls-1" d="M246.57,145.87c-1.45-1-3.07-.93-4.8-.93h-3.41V145a1.22,1.22,0,0,1,.59.82,24.66,24.66,0,0,1,.08,2.47v4.94c0,.83.12,1.75-.67,2.25v.05H242c1.8,0,3.41.07,4.87-1.1a5.52,5.52,0,0,0-.27-8.55Zm-1.51,6.87a2.23,2.23,0,0,1-2.18,1.18,2.86,2.86,0,0,1-.87-.12v-7a5.37,5.37,0,0,1,1.06-.11c2,0,2.55,2,2.55,3.63A4.76,4.76,0,0,1,245.06,152.74Z"/><path class="cls-1" d="M79.19,166.65l-.78,3.06.14-.1a3.56,3.56,0,0,1,2.24-.73,4,4,0,0,1,1,.08v8c0,1,.14,2.17-.83,2.78v.06h5.38v-.06a3.34,3.34,0,0,1-.87-2.82V169a3.37,3.37,0,0,1,1-.12,1.58,1.58,0,0,1,1.63.87l.67-3H79.56Z"/><path class="cls-1" d="M100,177.79l-1.92-3.2a2.85,2.85,0,0,0,1.92-2.54,2.61,2.61,0,0,0-1.43-2.44,4.13,4.13,0,0,0-2.16-.37H91.66v0c.79.49.68,1.41.68,2.25v6c0,.83.11,1.75-.68,2.25v0H96v0c-.79-.5-.68-1.42-.68-2.25v-2.24l1.87,3.51a1.86,1.86,0,0,0,2.15,1.07l2.22-.14A7.24,7.24,0,0,1,100,177.79Zm-4.7-3.36V170.8h.17a1.56,1.56,0,0,1,.92.22,1.68,1.68,0,0,1,.65,1.37A2.08,2.08,0,0,1,95.31,174.43Z"/><path class="cls-1" d="M114.13,177.52l-3-8.28h-3.94v0a1.12,1.12,0,0,1,.61.93,5.81,5.81,0,0,1-.36,1.28l-2.21,6.42a3.92,3.92,0,0,1-1.11,1.85v0h3.29v0c-.29-.25-.58-.45-.58-.9a4.29,4.29,0,0,1,.29-1.16l.39-1.09h3.18l.53,1.55a1.33,1.33,0,0,1,.13.62c0,.51-.29.73-.66,1v0h4.85v0A4.5,4.5,0,0,1,114.13,177.52Zm-6.19-2.4L109,172h0l1.11,3.16Z"/><path class="cls-1" d="M118.38,169.29c.78.49.67,1.41.67,2.25v6c0,.84.11,1.74-.67,2.24v0h4.32v0c-.79-.5-.67-1.4-.67-2.24v-6c0-.84-.12-1.76.67-2.25v0h-4.32Z"/><path class="cls-1" d="M133.33,169.29a2.73,2.73,0,0,1,.7,2.29v4.17l-4.93-6.46v0h-3.35v0a3,3,0,0,1,.93,2.63v5.55a2.7,2.7,0,0,1-.72,2.3v0h3.1v0a2.78,2.78,0,0,1-.71-2.3v-4.24h.06l3.08,4.11a5.73,5.73,0,0,0,2.28,2.17,5.43,5.43,0,0,0,1.93.64v-8.57a2.71,2.71,0,0,1,.71-2.29v0h-3.08Z"/><path class="cls-1" d="M139.59,169.29c.79.49.68,1.41.68,2.25v6c0,.84.11,1.74-.68,2.24v0h4.33v0c-.8-.5-.68-1.4-.68-2.24v-6c0-.84-.12-1.76.68-2.25v0h-4.33Z"/><path class="cls-1" d="M154.54,169.29a2.73,2.73,0,0,1,.7,2.29v4.17l-4.93-6.46v0H147v0a3,3,0,0,1,.93,2.63v5.55a2.73,2.73,0,0,1-.72,2.3v0h3.1v0a2.75,2.75,0,0,1-.71-2.3v-4.24h.05l3.09,4.11a5.67,5.67,0,0,0,2.28,2.17,5.43,5.43,0,0,0,1.93.64v-8.57a2.73,2.73,0,0,1,.7-2.29v0h-3.08Z"/><path class="cls-1" d="M166.94,174.36a1.6,1.6,0,0,1,.62,1.56v2.38a2.85,2.85,0,0,1-.65,0c-2.33,0-3-2.28-3-4.26s.9-3.41,3-3.41a3.75,3.75,0,0,1,2.37.86h.07V169.3a9.45,9.45,0,0,0-2.49-.32c-3.33,0-6,2.12-6,5.58s2.71,5.46,6.05,5.46a12.74,12.74,0,0,0,3.42-.5v-5.2h-3.38Z"/></g></g></svg>