<svg xmlns="http://www.w3.org/2000/svg" viewBox="0 0 248.74 180.15"><defs><style>.cls-1{fill:#d22e3f;}.cls-2{fill:#00533d;}</style></defs><g id="Layer_2" data-name="Layer 2"><g id="nrt_logo_coloured"><polyline class="cls-1" points="34.38 0 28.99 5.39 67.15 5.39 71.14 9.38 112.42 9.38 119.48 0 34.38 0"/><polyline class="cls-1" points="46.89 17.68 41.5 23.07 79.65 23.07 83.64 27.05 124.93 27.05 131.99 17.68 46.89 17.68"/><polyline class="cls-1" points="59.39 35.36 54 40.74 92.16 40.74 96.15 44.73 137.43 44.73 144.49 35.36 59.39 35.36"/><polyline class="cls-1" points="71.9 53.03 66.5 58.42 104.66 58.42 108.65 62.41 149.94 62.41 156.99 53.03 71.9 53.03"/><polyline class="cls-1" points="84.4 70.71 79.01 76.1 117.16 76.1 121.15 80.09 162.44 80.09 169.5 70.71 84.4 70.71"/><polyline class="cls-1" points="156.7 88.38 96.9 88.38 91.51 93.78 129.67 93.78 133.66 97.77 156.56 97.93 160.62 92.17 156.7 88.38"/><polyline class="cls-1" points="144.54 106.07 109.41 106.07 104.02 111.46 140.45 111.46 144.35 115.17 148.18 109.78 144.54 106.07"/><polyline class="cls-1" points="129.45 122.45 119.75 122.45 114.36 127.84 134.84 127.84 129.45 122.45"/><polyline class="cls-2" points="112.42 9.38 117.43 14.39 215.58 14.39 221.94 5.61 216.33 0 119.48 0 112.42 9.38"/><polyline class="cls-2" points="124.93 27.05 129.94 32.07 203.07 32.07 209.43 23.28 203.82 17.68 131.99 17.68 124.93 27.05"/><polyline class="cls-2" points="137.43 44.73 142.44 49.74 190.57 49.74 196.93 40.96 191.32 35.36 144.49 35.36 137.43 44.73"/><polyline class="cls-2" points="149.94 62.41 154.94 67.42 178.07 67.42 184.43 58.64 178.82 53.03 156.99 53.03 149.94 62.41"/><polyline class="cls-2" points="162.44 80.09 166.29 84.21 173.21 74.37 169.5 70.71 162.44 80.09"/><path class="cls-2" d="M12.28,156a6.75,6.75,0,0,1-2.38-.79,7.06,7.06,0,0,1-2.82-2.68l-3.81-5.08H3.21v5.24a3.37,3.37,0,0,0,.88,2.84v.05H.26v-.05a3.34,3.34,0,0,0,.89-2.84v-6.85A3.75,3.75,0,0,0,0,142.6v0H4.13v0l6.09,8v-5.14a3.37,3.37,0,0,0-.88-2.84v0h3.81v0a3.39,3.39,0,0,0-.87,2.84V156"/><path class="cls-2" d="M20.41,147.65h0l-1.06,3.17h2.19l-1.11-3.17m-1.55,4.67-.38,1.09a4.29,4.29,0,0,0-.29,1.16c0,.45.29.66.58.9v.05H15.48v-.05a3.86,3.86,0,0,0,1.1-1.85l2.22-6.41a6,6,0,0,0,.35-1.29,1.15,1.15,0,0,0-.6-.93v-.05h3.94l3,8.28a4.35,4.35,0,0,0,1.38,2.25v.05H22.05v-.05a1.1,1.1,0,0,0,.66-1,1.29,1.29,0,0,0-.13-.61l-.53-1.56Z"/><path class="cls-2" d="M34,153.19a2.71,2.71,0,0,0,.71,2.28v.05H30.35v-.05c.78-.5.67-1.42.67-2.25v-6.46a3,3,0,0,0-.8-.07,2.87,2.87,0,0,0-1.82.6l-.11.08.62-2.48.31.05h7.46l-.55,2.43a1.28,1.28,0,0,0-1.32-.71,2.84,2.84,0,0,0-.82.1v6.43"/><path class="cls-2" d="M43.09,153.24c0,.83-.11,1.73.68,2.23v.05H39.44v-.05c.79-.5.68-1.4.68-2.23v-6c0-.84.11-1.75-.68-2.25v-.05h4.33V145c-.79.5-.68,1.41-.68,2.25v6"/><path class="cls-2" d="M50.87,152.74A2.61,2.61,0,0,0,53,154.12,2.67,2.67,0,0,0,55.18,153a3.68,3.68,0,0,0,.59-2.25c0-1.83-.72-4.45-2.93-4.45-1.89,0-2.73,1.82-2.73,3.47a6.86,6.86,0,0,0,.76,3M53,144.68c3.37,0,5.85,2,5.85,5.5s-2.78,5.55-6,5.55S47,153.59,47,150.2,49.77,144.68,53,144.68Z"/><path class="cls-2" d="M71.88,155.85a5.55,5.55,0,0,1-1.94-.64A5.67,5.67,0,0,1,67.66,153l-3.08-4.11h0v4.24a2.75,2.75,0,0,0,.71,2.3v.05H62.13v-.05a2.7,2.7,0,0,0,.73-2.3v-5.55a3,3,0,0,0-.94-2.63v-.05h3.35V145l4.93,6.46v-4.16a2.75,2.75,0,0,0-.7-2.3v-.05h3.08V145a2.75,2.75,0,0,0-.7,2.3v8.56"/><path class="cls-2" d="M80.55,147.65h0l-1.06,3.17h2.18l-1.11-3.17M79,152.32l-.38,1.09a4,4,0,0,0-.29,1.16c0,.45.29.66.57.9v.05H75.62v-.05a3.88,3.88,0,0,0,1.11-1.85L79,147.21a6.67,6.67,0,0,0,.35-1.29,1.13,1.13,0,0,0-.61-.93v-.05h3.94l3,8.28a4.29,4.29,0,0,0,1.38,2.25v.05H82.2v-.05a1.11,1.11,0,0,0,.65-1,1.29,1.29,0,0,0-.13-.61l-.52-1.56Z"/><path class="cls-2" d="M93.57,153.7a4,4,0,0,0,1.69.27,3.48,3.48,0,0,0,2.28-.7l-.61,2.25h-7v-.05c.78-.5.67-1.4.67-2.23v-6c0-.84.11-1.75-.67-2.25v-.05h4.32V145c-.79.5-.68,1.41-.68,2.27v6.44"/><path class="cls-2" d="M104.18,153.7a4,4,0,0,0,1.69.27,3.49,3.49,0,0,0,2.28-.7l-.61,2.25h-7v-.05c.79-.5.68-1.4.68-2.23v-6c0-.84.11-1.75-.68-2.25v-.05h4.33V145c-.79.5-.68,1.41-.68,2.27v6.44"/><path class="cls-2" d="M115.89,153.17a2.75,2.75,0,0,0,.7,2.3v.05h-4.35v-.05c.78-.5.67-1.43.67-2.27v-2.48l-2.39-4.49a2.79,2.79,0,0,0-1-1.24v-.05h3.73V145l1.87,3.79L116,147a3.1,3.1,0,0,0,.37-1.11.86.86,0,0,0-.5-.85v-.05h2.89V145l-2.87,5.73v2.45"/><path class="cls-2" d="M134,144.47V149a2.58,2.58,0,0,0,2.14-2.52,2.08,2.08,0,0,0-.79-1.69,2,2,0,0,0-1.16-.27H134m0,8.29c0,1-.14,2.16.83,2.78v.05h-5.34v-.05c1-.62.84-1.75.84-2.78v-7.38c0-1,.13-2.16-.84-2.78v0h5.88a5.09,5.09,0,0,1,2.66.45,3.24,3.24,0,0,1,1.76,3,3.5,3.5,0,0,1-2.36,3.14l2.36,3.95a9.06,9.06,0,0,0,1.91,2.38l-2.75.18a2.29,2.29,0,0,1-2.65-1.33L134,150Z"/><path class="cls-2" d="M147.78,153.73a4.62,4.62,0,0,0,1.69.24,2.81,2.81,0,0,0,2.35-.88h.08l-.65,2.43h-7.12v-.05c.79-.5.67-1.4.67-2.23v-6c0-.83.12-1.75-.67-2.23v-.05h5.62a1.79,1.79,0,0,0,.68-.08h0v2.33h0c-.43-.75-1.35-.67-2.14-.67h-.51v2.6h1.49a1.65,1.65,0,0,0,.59-.08h.08v2.25h-.08c-.22-.65-1-.58-1.55-.58h-.53v3"/><path class="cls-2" d="M163.61,147.14a4.82,4.82,0,0,0-2.68-.83c-2.2,0-2.83,1.76-2.83,3.71,0,2.22,1.08,4,3.47,4a7.36,7.36,0,0,0,3.47-1l-.8,2.35a12,12,0,0,1-3.21.39,6.08,6.08,0,0,1-4.3-1.39,5.4,5.4,0,0,1-1.89-4.19,5.49,5.49,0,0,1,1.75-4,6.88,6.88,0,0,1,4.48-1.44l2.43.21.11,2.25"/><path class="cls-2" d="M172,152.74a2.63,2.63,0,0,0,2.18,1.38,2.67,2.67,0,0,0,2.13-1.13,3.68,3.68,0,0,0,.59-2.25c0-1.83-.72-4.45-2.92-4.45-1.9,0-2.73,1.82-2.73,3.47a7,7,0,0,0,.75,3m2.18-8.06c3.37,0,5.84,2,5.84,5.5s-2.77,5.55-6,5.55-5.85-2.14-5.85-5.53S170.89,144.68,174.16,144.68Z"/><path class="cls-2" d="M192.58,155.23a12.81,12.81,0,0,1-3.43.5c-3.34,0-6.05-1.9-6.05-5.47s2.65-5.58,6-5.58a9.56,9.56,0,0,1,2.49.32v2.24h-.08a3.75,3.75,0,0,0-2.37-.85c-2.09,0-3,1.46-3,3.41s.69,4.25,3,4.25a2.85,2.85,0,0,0,.65-.05v-2.37a1.6,1.6,0,0,0-.61-1.56v0h3.38v5.21"/><path class="cls-2" d="M205.52,155.85a5.9,5.9,0,0,1-4.2-2.81l-3.1-4.11h0v4.24a2.75,2.75,0,0,0,.71,2.3v.05h-3.1v-.05a2.73,2.73,0,0,0,.72-2.3v-5.55a3,3,0,0,0-.94-2.63v-.05h3.35V145l4.94,6.46v-4.16a2.73,2.73,0,0,0-.72-2.3v-.05h3.1V145a2.73,2.73,0,0,0-.72,2.3v8.56"/><path class="cls-2" d="M213.07,153.24c0,.83-.12,1.73.67,2.23v.05h-4.32v-.05c.78-.5.67-1.4.67-2.23v-6c0-.84.11-1.75-.67-2.25v-.05h4.32V145c-.79.5-.67,1.41-.67,2.25v6"/><path class="cls-2" d="M216.73,152.83a5.65,5.65,0,0,0,3.37,1.26c.72,0,1.71-.24,1.71-1.14,0-2-4.9-1.56-4.9-5.16a2.84,2.84,0,0,1,1.19-2.33,4.67,4.67,0,0,1,2.79-.78,7.77,7.77,0,0,1,2.7.49v1.88a4.25,4.25,0,0,0-2.27-.76c-.62,0-1.39.27-1.39,1s.93,1.08,1.52,1.33a7.93,7.93,0,0,1,2.14,1.21,3,3,0,0,1,1.18,2.43,3.12,3.12,0,0,1-1.28,2.6,5,5,0,0,1-3.12.84,8.62,8.62,0,0,1-3.12-.58l-.52-2.32"/><path class="cls-2" d="M231.35,153.73A4.62,4.62,0,0,0,233,154a2.77,2.77,0,0,0,2.34-.88h.09l-.65,2.43H227.7v-.05c.79-.5.68-1.4.68-2.23v-6c0-.83.11-1.75-.68-2.23v-.05h5.63a1.76,1.76,0,0,0,.67-.08h.05v2.33H234c-.44-.75-1.35-.67-2.13-.67h-.52v2.6h1.49a1.78,1.78,0,0,0,.6-.08h.08v2.25h-.08c-.22-.65-1-.58-1.56-.58h-.53v3"/><path class="cls-2" d="M242,153.8a2.86,2.86,0,0,0,.87.12,2.23,2.23,0,0,0,2.18-1.18,4.76,4.76,0,0,0,.56-2.46c0-1.66-.58-3.63-2.55-3.63a5.37,5.37,0,0,0-1.06.11v7m-3-5.52a24.66,24.66,0,0,0-.08-2.47,1.22,1.22,0,0,0-.59-.82v-.05h3.41c1.73,0,3.35-.08,4.8.93a5.52,5.52,0,0,1,.27,8.55c-1.46,1.17-3.07,1.1-4.87,1.1h-3.61v-.05c.79-.5.67-1.42.67-2.25Z"/><path class="cls-2" d="M85.46,176.89a3.34,3.34,0,0,0,.87,2.82v.06H81v-.06c1-.61.83-1.74.83-2.78v-8a4,4,0,0,0-1-.08,3.56,3.56,0,0,0-2.24.73l-.14.1.78-3.06.37.06h9.21l-.67,3a1.58,1.58,0,0,0-1.63-.87,3.37,3.37,0,0,0-1,.12v7.93"/><path class="cls-2" d="M95.31,170.8v3.63a2.08,2.08,0,0,0,1.74-2A1.68,1.68,0,0,0,96.4,171a1.56,1.56,0,0,0-.92-.22h-.17m0,6.72c0,.83-.11,1.75.68,2.25v0H91.66v0c.79-.5.68-1.42.68-2.25v-6c0-.84.11-1.76-.68-2.25v0h4.76a4.13,4.13,0,0,1,2.16.37,2.61,2.61,0,0,1,1.43,2.44,2.85,2.85,0,0,1-1.92,2.54l1.92,3.2a7.24,7.24,0,0,0,1.54,1.93l-2.22.14a1.86,1.86,0,0,1-2.15-1.07l-1.87-3.51Z"/><path class="cls-2" d="M109,172h0l-1.07,3.16h2.19L109,172m-1.54,4.66-.39,1.09a4.29,4.29,0,0,0-.29,1.16c0,.45.29.65.58.9v0h-3.29v0a3.92,3.92,0,0,0,1.11-1.85l2.21-6.42a5.81,5.81,0,0,0,.36-1.28,1.12,1.12,0,0,0-.61-.93v0h3.94l3,8.28a4.5,4.5,0,0,0,1.38,2.25v0h-4.85v0c.37-.25.66-.47.66-1a1.33,1.33,0,0,0-.13-.62l-.53-1.55Z"/><path class="cls-2" d="M122,177.53c0,.84-.12,1.74.67,2.24v0h-4.32v0c.78-.5.67-1.4.67-2.24v-6c0-.84.11-1.76-.67-2.25v0h4.32v0c-.79.49-.67,1.41-.67,2.25v6"/><path class="cls-2" d="M135.7,180.15a5.43,5.43,0,0,1-1.93-.64,5.73,5.73,0,0,1-2.28-2.17l-3.08-4.11h-.06v4.24a2.78,2.78,0,0,0,.71,2.3v0H126v0a2.7,2.7,0,0,0,.72-2.3v-5.55a3,3,0,0,0-.93-2.63v0h3.35v0l4.93,6.46v-4.17a2.73,2.73,0,0,0-.7-2.29v0h3.08v0a2.71,2.71,0,0,0-.71,2.29v8.57"/><path class="cls-2" d="M143.24,177.53c0,.84-.12,1.74.68,2.24v0h-4.33v0c.79-.5.68-1.4.68-2.24v-6c0-.84.11-1.76-.68-2.25v0h4.33v0c-.8.49-.68,1.41-.68,2.25v6"/><path class="cls-2" d="M156.92,180.15a5.43,5.43,0,0,1-1.93-.64,5.67,5.67,0,0,1-2.28-2.17l-3.09-4.11h-.05v4.24a2.75,2.75,0,0,0,.71,2.3v0h-3.1v0a2.73,2.73,0,0,0,.72-2.3v-5.55a3,3,0,0,0-.93-2.63v0h3.34v0l4.93,6.46v-4.17a2.73,2.73,0,0,0-.7-2.29v0h3.08v0a2.73,2.73,0,0,0-.7,2.29v8.57"/><path class="cls-2" d="M170.32,179.52a12.74,12.74,0,0,1-3.42.5c-3.34,0-6.05-1.89-6.05-5.46s2.65-5.58,6-5.58a9.45,9.45,0,0,1,2.49.32v2.24h-.07a3.75,3.75,0,0,0-2.37-.86c-2.09,0-3,1.47-3,3.41s.69,4.26,3,4.26a2.85,2.85,0,0,0,.65,0v-2.38a1.6,1.6,0,0,0-.62-1.56v0h3.38v5.2"/></g></g></svg>