<svg xmlns="http://www.w3.org/2000/svg" width="154.987" height="102" viewBox="0 0 154.987 102">
  <g id="Group_565" data-name="Group 565" transform="translate(-248.913 -420.708)">
    <g id="Show_Teach" data-name="Show Teach">
      <g id="Group_553" data-name="Group 553">
        <path id="Path_665" data-name="Path 665" d="M309.241,454.953v-24.2a3.375,3.375,0,0,1,3.374-3.374h65.459a3.375,3.375,0,0,1,3.374,3.374v48.4a3.374,3.374,0,0,1-3.374,3.373H312.615a3.374,3.374,0,0,1-3.374-3.373v-4.21" fill="rgba(31,206,209,0.3)" stroke="#000" stroke-linecap="round" stroke-linejoin="round" stroke-width="2"/>
      </g>
    </g>
    <path id="Path_666" data-name="Path 666" d="M315.613,460.791a6.98,6.98,0,0,1,.926-1.243,7.106,7.106,0,0,1,10-.346l-4.826,5.171,5.149,4.849a7.068,7.068,0,0,1-10.912-.751" fill="#fff" stroke="#000" stroke-linecap="round" stroke-linejoin="round" stroke-width="2"/>
    <path id="Path_667" data-name="Path 667" d="M291.537,460.468l24.574-.021.008,8.876-17.448.022" fill="#fff" stroke="#000" stroke-linecap="round" stroke-linejoin="round" stroke-width="2"/>
    <rect id="Rectangle_584" data-name="Rectangle 584" width="27.772" height="27.772" rx="4.305" transform="translate(296.269 460.384) rotate(-180)" fill="none" stroke="#000" stroke-linecap="round" stroke-linejoin="round" stroke-width="2"/>
    <rect id="Rectangle_585" data-name="Rectangle 585" width="32.577" height="23.663" rx="4.305" transform="translate(298.672 484.171) rotate(-180)" fill="none" stroke="#000" stroke-linecap="round" stroke-linejoin="round" stroke-width="2"/>
    <g id="Group_554" data-name="Group 554">
      <circle id="Ellipse_239" data-name="Ellipse 239" cx="2.983" cy="2.983" r="2.983" transform="translate(285.275 438.48)" fill="rgba(31,206,209,0.3)" stroke="#000" stroke-linecap="round" stroke-linejoin="round" stroke-width="2"/>
      <circle id="Ellipse_240" data-name="Ellipse 240" cx="2.983" cy="2.983" r="2.983" transform="translate(273.525 438.48)" fill="rgba(31,206,209,0.3)" stroke="#000" stroke-linecap="round" stroke-linejoin="round" stroke-width="2"/>
    </g>
    <rect id="Rectangle_586" data-name="Rectangle 586" width="18.118" height="5.589" rx="2.794" transform="translate(291.442 455.055) rotate(-180)" fill="rgba(31,206,209,0.3)" stroke="#000" stroke-linecap="round" stroke-linejoin="round" stroke-width="2"/>
    <line id="Line_358" data-name="Line 358" y2="5.487" transform="translate(279.53 449.506)" fill="none" stroke="#000" stroke-linecap="round" stroke-linejoin="round" stroke-width="2"/>
    <line id="Line_359" data-name="Line 359" y2="5.487" transform="translate(285.275 449.466)" fill="none" stroke="#000" stroke-linecap="round" stroke-linejoin="round" stroke-width="2"/>
    <g id="Group_555" data-name="Group 555">
      <line id="Line_360" data-name="Line 360" y1="5.702" transform="translate(282.383 426.91)" fill="none" stroke="#000" stroke-linecap="round" stroke-linejoin="round" stroke-width="2"/>
      <circle id="Ellipse_241" data-name="Ellipse 241" cx="2.515" cy="2.515" r="2.515" transform="translate(279.868 421.708)" fill="rgba(31,206,209,0.3)" stroke="#000" stroke-linecap="round" stroke-linejoin="round" stroke-width="2"/>
    </g>
    <g id="Group_556" data-name="Group 556">
      <rect id="Rectangle_587" data-name="Rectangle 587" width="10.282" height="10.282" transform="translate(295.397 494.453) rotate(-180)" fill="none" stroke="#000" stroke-linecap="round" stroke-linejoin="round" stroke-width="2"/>
      <path id="Path_668" data-name="Path 668" d="M295.4,494.453l4.06,3.322.1,3.85H285.114v-7.172Z" fill="none" stroke="#000" stroke-linecap="round" stroke-linejoin="round" stroke-width="2"/>
      <path id="Path_669" data-name="Path 669" d="M269.372,494.453l-4.06,3.322-.1,3.85h14.442v-7.172Z" fill="none" stroke="#000" stroke-linecap="round" stroke-linejoin="round" stroke-width="2"/>
      <line id="Line_361" data-name="Line 361" x1="10.282" transform="translate(285.114 489.312)" fill="none" stroke="#000" stroke-linecap="round" stroke-linejoin="round" stroke-width="2"/>
      <rect id="Rectangle_588" data-name="Rectangle 588" width="10.282" height="10.282" transform="translate(269.369 484.171)" fill="none" stroke="#000" stroke-linecap="round" stroke-linejoin="round" stroke-width="2"/>
      <line id="Line_362" data-name="Line 362" x2="10.282" transform="translate(269.369 489.312)" fill="none" stroke="#000" stroke-linecap="round" stroke-linejoin="round" stroke-width="2"/>
    </g>
    <g id="Group_557" data-name="Group 557">
      <path id="Path_670" data-name="Path 670" d="M261.276,484.909h-8.609v-6.5a13.442,13.442,0,0,1,13.427-13.427v8.61a4.823,4.823,0,0,0-4.818,4.817Z" fill="none" stroke="#000" stroke-linecap="round" stroke-linejoin="round" stroke-width="2"/>
    </g>
    <line id="Line_363" data-name="Line 363" x1="5.877" y1="5.877" transform="translate(256.947 469.002)" fill="none" stroke="#000" stroke-linecap="round" stroke-linejoin="round" stroke-width="2"/>
    <line id="Line_364" data-name="Line 364" x1="8.61" transform="translate(252.667 478.406)" fill="none" stroke="#000" stroke-linecap="round" stroke-linejoin="round" stroke-width="2"/>
    <path id="Path_671" data-name="Path 671" d="M253.181,484.5a6.972,6.972,0,0,0-1.21.969,7.1,7.1,0,0,0,0,10l5-5,5.024,4.978a7.106,7.106,0,0,0-.023-9.979,7.013,7.013,0,0,0-1.1-.9" fill="none" stroke="#000" stroke-linecap="round" stroke-linejoin="round" stroke-width="2"/>
    <line id="Line_365" data-name="Line 365" x2="4.07" transform="translate(272.48 470.124)" fill="none" stroke="#000" stroke-linecap="round" stroke-linejoin="round" stroke-width="2"/>
    <line id="Line_366" data-name="Line 366" x2="0.008" y2="8.234" transform="translate(309.924 460.776)" fill="none" stroke="#000" stroke-linecap="round" stroke-linejoin="round" stroke-width="2"/>
    <line id="Line_367" data-name="Line 367" x2="0.008" y2="8.234" transform="translate(303.828 460.712)" fill="none" stroke="#000" stroke-linecap="round" stroke-linejoin="round" stroke-width="2"/>
    <path id="Path_672" data-name="Path 672" d="M328.916,520.341" fill="none" stroke="#000" stroke-linecap="round" stroke-linejoin="round" stroke-width="2"/>
    <path id="Path_673" data-name="Path 673" d="M346.763,520.341" fill="none" stroke="#000" stroke-linecap="round" stroke-linejoin="round" stroke-width="2"/>
    <path id="Path_674" data-name="Path 674" d="M329.366,521.708v-7.8a2.041,2.041,0,0,1,2.041-2.041h13.766a2.04,2.04,0,0,1,2.04,2.041v7.8" fill="rgba(31,206,209,0.3)" stroke="#000" stroke-linecap="round" stroke-linejoin="round" stroke-width="2"/>
    <path id="Path_675" data-name="Path 675" d="M344.53,511.591a6.015,6.015,0,0,0-6.015-6.015h-.993a1.013,1.013,0,0,1-1.013-1.014v-1.928c0-.363.284-.592.508-.877a7.436,7.436,0,0,0,2-5.169c.158-3.57-1.78-6.7-5.354-6.752-3.618-.057-5.569,2.859-5.569,6.463,0,2.3.556,3.291,2.01,5.459.2.3.507.513.507.875v1.929a1.013,1.013,0,0,1-1.013,1.014h0a6.015,6.015,0,0,0-6.015,6.015v10.117" fill="none" stroke="#000" stroke-linecap="round" stroke-linejoin="round" stroke-width="2"/>
    <path id="Path_676" data-name="Path 676" d="M356.76,520.341" fill="none" stroke="#000" stroke-linecap="round" stroke-linejoin="round" stroke-width="2"/>
    <path id="Path_677" data-name="Path 677" d="M374.607,520.341" fill="none" stroke="#000" stroke-linecap="round" stroke-linejoin="round" stroke-width="2"/>
    <path id="Path_678" data-name="Path 678" d="M357.21,521.708v-7.8a2.04,2.04,0,0,1,2.04-2.041h13.766a2.041,2.041,0,0,1,2.041,2.041v7.8" fill="rgba(31,206,209,0.3)" stroke="#000" stroke-linecap="round" stroke-linejoin="round" stroke-width="2"/>
    <path id="Path_679" data-name="Path 679" d="M372.374,511.591a6.016,6.016,0,0,0-6.016-6.015h-.993a1.014,1.014,0,0,1-1.013-1.014v-1.928c0-.363.284-.592.508-.877a7.437,7.437,0,0,0,2-5.169c.157-3.57-1.781-6.7-5.355-6.752-3.618-.057-5.568,2.859-5.568,6.463,0,2.3.555,3.291,2.009,5.459.2.3.507.513.507.875v1.929a1.013,1.013,0,0,1-1.013,1.014h0a6.015,6.015,0,0,0-6.015,6.015v10.117" fill="none" stroke="#000" stroke-linecap="round" stroke-linejoin="round" stroke-width="2"/>
    <path id="Path_680" data-name="Path 680" d="M384.6,520.341" fill="none" stroke="#000" stroke-linecap="round" stroke-linejoin="round" stroke-width="2"/>
    <path id="Path_681" data-name="Path 681" d="M402.45,520.341" fill="none" stroke="#000" stroke-linecap="round" stroke-linejoin="round" stroke-width="2"/>
    <path id="Path_682" data-name="Path 682" d="M385.053,521.708v-7.8a2.041,2.041,0,0,1,2.041-2.041h13.765a2.041,2.041,0,0,1,2.041,2.041v7.8" fill="rgba(31,206,209,0.3)" stroke="#000" stroke-linecap="round" stroke-linejoin="round" stroke-width="2"/>
    <path id="Path_683" data-name="Path 683" d="M400.217,511.591a6.015,6.015,0,0,0-6.016-6.015h-.993a1.014,1.014,0,0,1-1.013-1.014v-1.928c0-.363.284-.592.508-.877a7.432,7.432,0,0,0,2-5.169c.157-3.57-1.781-6.7-5.355-6.752-3.618-.057-5.568,2.859-5.568,6.463,0,2.3.556,3.291,2.009,5.459.2.3.508.513.508.875v1.929a1.014,1.014,0,0,1-1.014,1.014h0a6.015,6.015,0,0,0-6.015,6.015v10.117" fill="none" stroke="#000" stroke-linecap="round" stroke-linejoin="round" stroke-width="2"/>
    <path id="Path_684" data-name="Path 684" d="M371.276,436.6c-1.258-1.257-3.783-.954-6.3-.171-3.859,1.2-6.2,2.292-9,5.1l-.9.9a8.056,8.056,0,0,0-4.945.309l-1.768.7a9.074,9.074,0,0,1-4.692.526l-2.209-.338a9.07,9.07,0,0,0-7.784,2.552,2.234,2.234,0,0,0,0,3.159l4.7,4.7,2.548,2.548a1.847,1.847,0,0,0,0,2.612l2.878,2.877h0l-.52.52a1.742,1.742,0,0,0,2.464,2.464l.52-.52h0l2.423,2.423a1.846,1.846,0,0,0,2.612,0l7.335,7.336a2.234,2.234,0,0,0,3.159,0,9.07,9.07,0,0,0,2.552-7.784L364,464.3a9.074,9.074,0,0,1,.526-4.692l.7-1.768a8.056,8.056,0,0,0,.309-4.945l-.184.007,1-1c2.806-2.806,3.9-5.144,5.1-9C372.229,440.381,372.533,437.856,371.276,436.6Z" fill="#fff"/>
    <g id="Spacehip_Rocket" data-name="Spacehip Rocket">
      <g id="Group_558" data-name="Group 558">
        <path id="Path_685" data-name="Path 685" d="M340.963,456.578l-7.247-7.247a2.234,2.234,0,0,1,0-3.159h0a9.07,9.07,0,0,1,7.784-2.552l2.209.338a9.074,9.074,0,0,0,4.692-.526l1.768-.7a8.056,8.056,0,0,1,4.945-.309h0" fill="none" stroke="#000" stroke-linecap="round" stroke-linejoin="round" stroke-width="2"/>
        <path id="Path_686" data-name="Path 686" d="M351.428,467.043l7.247,7.247a2.234,2.234,0,0,0,3.159,0h0a9.07,9.07,0,0,0,2.552-7.784l-.338-2.209a9.074,9.074,0,0,1,.526-4.692l.7-1.768a8.056,8.056,0,0,0,.309-4.945h0" fill="none" stroke="#000" stroke-linecap="round" stroke-linejoin="round" stroke-width="2"/>
        <path id="Path_687" data-name="Path 687" d="M355.787,462.507,366.393,451.9c2.806-2.806,3.9-5.144,5.1-9,.783-2.517,1.086-5.042-.171-6.3s-3.783-.954-6.3-.171c-3.859,1.2-6.2,2.292-9,5.1l-10.606,10.606" fill="none" stroke="#000" stroke-linecap="round" stroke-linejoin="round" stroke-width="2"/>
        <path id="Path_688" data-name="Path 688" d="M346.3,464.531l2.423,2.423a1.846,1.846,0,0,0,2.612,0l1.285-1.285" fill="none" stroke="#000" stroke-linecap="round" stroke-linejoin="round" stroke-width="2"/>
        <path id="Path_689" data-name="Path 689" d="M342.249,455.293l-1.286,1.285a1.847,1.847,0,0,0,0,2.612l2.878,2.877" fill="none" stroke="#000" stroke-linecap="round" stroke-linejoin="round" stroke-width="2"/>
        <path id="Path_690" data-name="Path 690" d="M361.173,442.132a3.262,3.262,0,0,1,4.613,4.613" fill="none" stroke="#000" stroke-linecap="round" stroke-linejoin="round" stroke-width="2"/>
        <line id="Line_368" data-name="Line 368" x1="3.346" y2="3.346" transform="translate(335.705 462.087)" fill="none" stroke="#000" stroke-linecap="round" stroke-linejoin="round" stroke-width="2"/>
        <line id="Line_369" data-name="Line 369" x1="3.346" y2="3.346" transform="translate(342.939 469.321)" fill="none" stroke="#000" stroke-linecap="round" stroke-linejoin="round" stroke-width="2"/>
        <line id="Line_370" data-name="Line 370" x1="1.256" y2="1.256" transform="translate(339.322 467.794)" fill="none" stroke="#000" stroke-linecap="round" stroke-linejoin="round" stroke-width="2"/>
        <path id="Path_691" data-name="Path 691" d="M351.115,459.721l-5.33,5.33a1.741,1.741,0,0,1-2.464,0h0a1.743,1.743,0,0,1,0-2.464l5.33-5.329" fill="none" stroke="#000" stroke-linecap="round" stroke-linejoin="round" stroke-width="2"/>
        <line id="Line_371" data-name="Line 371" x2="6.471" y2="6.471" transform="translate(364.9 436.547)" fill="none" stroke="#000" stroke-linecap="round" stroke-linejoin="round" stroke-width="2"/>
      </g>
    </g>
    <g id="Group_559" data-name="Group 559">
      <line id="Line_372" data-name="Line 372" y2="3.607" transform="translate(324.18 445.898)" fill="none" stroke="#1fced1" stroke-linecap="round" stroke-linejoin="round" stroke-width="2"/>
      <line id="Line_373" data-name="Line 373" x2="3.607" transform="translate(322.377 447.702)" fill="none" stroke="#1fced1" stroke-linecap="round" stroke-linejoin="round" stroke-width="2"/>
    </g>
    <g id="Group_560" data-name="Group 560">
      <line id="Line_374" data-name="Line 374" x1="2.551" y2="2.551" transform="translate(316.644 433.196)" fill="none" stroke="#1fced1" stroke-linecap="round" stroke-linejoin="round" stroke-width="2"/>
      <line id="Line_375" data-name="Line 375" x2="2.551" y2="2.551" transform="translate(316.644 433.196)" fill="none" stroke="#1fced1" stroke-linecap="round" stroke-linejoin="round" stroke-width="2"/>
    </g>
    <g id="Group_561" data-name="Group 561">
      <line id="Line_376" data-name="Line 376" y2="3.607" transform="translate(374.157 469.19)" fill="none" stroke="#1fced1" stroke-linecap="round" stroke-linejoin="round" stroke-width="2"/>
      <line id="Line_377" data-name="Line 377" x2="3.607" transform="translate(372.353 470.994)" fill="none" stroke="#1fced1" stroke-linecap="round" stroke-linejoin="round" stroke-width="2"/>
    </g>
    <g id="Group_562" data-name="Group 562">
      <line id="Line_378" data-name="Line 378" x1="3.607" transform="translate(344.501 435.747)" fill="none" stroke="#1fced1" stroke-linecap="round" stroke-linejoin="round" stroke-width="2"/>
      <line id="Line_379" data-name="Line 379" y2="3.607" transform="translate(346.305 433.943)" fill="none" stroke="#1fced1" stroke-linecap="round" stroke-linejoin="round" stroke-width="2"/>
    </g>
    <g id="Group_563" data-name="Group 563">
      <line id="Line_380" data-name="Line 380" x1="2.551" y2="2.551" transform="translate(329.366 474.465)" fill="none" stroke="#1fced1" stroke-linecap="round" stroke-linejoin="round" stroke-width="2"/>
      <line id="Line_381" data-name="Line 381" x2="2.551" y2="2.551" transform="translate(329.366 474.465)" fill="none" stroke="#1fced1" stroke-linecap="round" stroke-linejoin="round" stroke-width="2"/>
    </g>
  </g>
</svg>
