<svg xmlns="http://www.w3.org/2000/svg" width="101.747" height="101.998" viewBox="0 0 101.747 101.998">
  <g id="tools" transform="translate(-453.015 -70.551)">
    <g id="Group_371" data-name="Group 371">
      <g id="wrench_upright_spanner_tool" data-name="wrench upright spanner tool">
        <g id="Group_368" data-name="Group 368">
          <path id="Path_474" data-name="Path 474" d="M490.1,119.692l-13.185-13.159c-15.715,5.719-26.774-9.126-21.6-21.465l9.959,9.9,8.86-1.992,2.2-9.64L466.7,73.757c9.894-4.948,27.614,3.149,21.535,21.4L506.81,113.7" fill="none" stroke="#231f20" stroke-linecap="round" stroke-linejoin="round" stroke-width="2"/>
        </g>
      </g>
      <g id="wrench_upright_spanner_tool-2" data-name="wrench upright spanner tool">
        <g id="Group_369" data-name="Group 369">
          <line id="Line_236" data-name="Line 236" x2="19.096" y2="19.076" transform="translate(512.259 119.217)" fill="none" stroke="#231f20" stroke-linecap="round" stroke-linejoin="round" stroke-width="2"/>
          <line id="Line_237" data-name="Line 237" x1="14.021" y1="14.019" transform="translate(506.23 135.889)" fill="none" stroke="#231f20" stroke-linecap="round" stroke-linejoin="round" stroke-width="2"/>
        </g>
      </g>
      <g id="Group_370" data-name="Group 370">
        <path id="Path_475" data-name="Path 475" d="M488.4,121.394a4.555,4.555,0,0,1-6.435,6.448l-.092-.2L457.746,151.82a11.571,11.571,0,0,0,0,16.346h0a11.524,11.524,0,0,0,16.312,0l24.083-24.133-.552-.535a4.555,4.555,0,1,1,6.435-6.448l.543.5,5.49-5.411a2,2,0,0,0,.014-2.835l-13.3-13.37a2,2,0,0,0-2.822-.013l-5.5,5.424Z" fill="rgba(31,206,209,0.3)" stroke="#231f20" stroke-linecap="round" stroke-linejoin="round" stroke-width="2"/>
        <line id="Line_238" data-name="Line 238" y1="18.721" x2="18.825" transform="translate(466.029 135.508)" fill="none" stroke="#231f20" stroke-linecap="round" stroke-linejoin="round" stroke-width="2"/>
        <path id="Path_476" data-name="Path 476" d="M538.867,91.78l-33.033,33.11-5.1-5.1,33.033-33.11" fill="none" stroke="#231f20" stroke-linecap="round" stroke-linejoin="round" stroke-width="2"/>
        <path id="Path_477" data-name="Path 477" d="M533.771,86.675l-1.04-5.006,14.336-10.119,6.7,6.707-9.9,14.563-5-1.04" fill="none" stroke="#231f20" stroke-linecap="round" stroke-linejoin="round" stroke-width="2"/>
        <line id="Line_239" data-name="Line 239" y1="18.721" x2="18.825" transform="translate(471.395 141.001)" fill="none" stroke="#231f20" stroke-linecap="round" stroke-linejoin="round" stroke-width="2"/>
      </g>
      <path id="Path_478" data-name="Path 478" d="M531.354,138.29A16.879,16.879,0,1,1,520.243,149.9" fill="none" stroke="#231f20" stroke-linecap="round" stroke-linejoin="round" stroke-width="2"/>
      <path id="Path_479" data-name="Path 479" d="M543.809,152.417l-5.349-5.36-7.307,1.962-1.958,7.322,5.349,5.36,7.307-1.962Z" fill="none" stroke="#231f20" stroke-miterlimit="10" stroke-width="2"/>
    </g>
  </g>
</svg>
