<svg id="twitter" xmlns="http://www.w3.org/2000/svg" width="50" height="50" viewBox="0 0 50 50">
  <circle id="Ellipse_245" data-name="Ellipse 245" cx="25" cy="25" r="25" fill="#1da1f2"/>
  <path id="Path_783" data-name="Path 783" d="M319.558,591.255c11.1,0,17.1-9.2,17.1-17.1v-.8a12.6,12.6,0,0,0,3-3.1,10.036,10.036,0,0,1-3.5.9,6.335,6.335,0,0,0,2.7-3.3,13.684,13.684,0,0,1-3.8,1.5,6.014,6.014,0,0,0-10.4,4.1,6.752,6.752,0,0,0,.2,1.4,17.286,17.286,0,0,1-12.4-6.3,5.995,5.995,0,0,0,1.9,8,5.029,5.029,0,0,1-2.7-.8v.1a6.019,6.019,0,0,0,4.8,5.9,7.774,7.774,0,0,1-1.6.2,3.748,3.748,0,0,1-1.1-.1,6.141,6.141,0,0,0,5.6,4.2,12.388,12.388,0,0,1-7.5,2.6,6.147,6.147,0,0,1-1.4-.1,16.266,16.266,0,0,0,9.1,2.7" transform="translate(-299.158 -553.055)" fill="#fff"/>
</svg>
