<svg id="vimeo" xmlns="http://www.w3.org/2000/svg" width="50" height="50" viewBox="0 0 50 50">
  <circle id="Ellipse_244" data-name="Ellipse 244" cx="25" cy="25" r="25" fill="#1ab7ea"/>
  <g id="Group_591" data-name="Group 591" transform="translate(7.6 10.489)">
    <g id="Group_590" data-name="Group 590">
      <path id="Path_782" data-name="Path 782" d="M428.421,570.455c-.1,3.2-2.4,7.6-6.7,13.1-4.5,5.8-8.3,8.7-11.3,8.7-1.9,0-3.5-1.8-4.9-5.3-.9-3.2-1.8-6.5-2.7-9.7-1-3.5-2-5.3-3.2-5.3a11.637,11.637,0,0,0-2.6,1.5l-1.5-2c1.6-1.4,3.2-2.9,4.8-4.3,2.2-1.9,3.8-2.9,4.9-3,2.6-.2,4.1,1.5,4.7,5.2.6,4,1.1,6.6,1.3,7.5.7,3.4,1.6,5,2.4,5,.7,0,1.7-1.1,3.1-3.3s2.1-3.8,2.2-5c.2-1.9-.5-2.8-2.2-2.8a6.874,6.874,0,0,0-2.4.5c1.6-5.3,4.7-7.9,9.3-7.7C427.021,563.955,428.621,566.155,428.421,570.455Z" transform="translate(-395.521 -563.544)" fill="#fff"/>
    </g>
  </g>
</svg>
